<svg width="30" height="24" viewBox="0 0 30 24" fill="none" xmlns="http://www.w3.org/2000/svg">
    <path d="M29.9651 22.026L26.0374 3.03156C25.6742 1.27415 24.1314 0 22.3679 0C10.5966 0 21.9265 0 7.63209 0C5.8686 0 4.3258 1.27415 3.9626 3.03156L0.0349107 22.026C-0.148296 22.9107 0.407752 23.7779 1.27664 23.9645C2.14982 24.151 2.99836 23.5816 3.18049 22.7001L3.81368 19.6358H6.95712L6.46321 22.026C6.28001 22.9107 6.83605 23.7779 7.70495 23.9645C8.57277 24.151 9.42559 23.5848 9.6088 22.7001L13.6254 3.27264H16.3735L20.3912 22.7001C20.5744 23.5848 21.4283 24.151 22.2951 23.9645C23.1639 23.779 23.72 22.9107 23.5368 22.026L23.0429 19.6358H26.1863L26.8195 22.7001C27.0016 23.5826 27.8523 24.151 28.7234 23.9645C29.5922 23.7779 30.1483 22.9096 29.9651 22.026ZM8.53634 11.9997H5.3929L6.07001 8.72704H9.21346L8.53634 11.9997ZM4.26473 17.4541L4.94185 14.1814H8.08529L7.40817 17.4541H4.26473ZM9.66451 6.54528H6.52L7.10711 3.70572C7.15961 3.45482 7.38032 3.27264 7.63209 3.27264H10.3416L9.66451 6.54528ZM20.7865 8.72704H23.93L24.6071 11.9997H21.4637L20.7865 8.72704ZM22.3679 3.27264C22.6197 3.27264 22.8404 3.45482 22.8918 3.70572L23.48 6.54528H20.3355L19.6584 3.27264H22.3679ZM22.5908 17.4541L21.9136 14.1814H25.0571L25.7342 17.4541H22.5908Z" fill="url(#paint0_linear_548_1527)"/>
    <defs>
        <linearGradient id="paint0_linear_548_1527" x1="3.04147" y1="8.60946e-08" x2="30.2904" y2="3.48272" gradientUnits="userSpaceOnUse">
            <stop stop-color="#FFBA00"/>
            <stop offset="1" stop-color="#FF9900"/>
        </linearGradient>
    </defs>
</svg>
