<svg width="73" height="67" viewBox="0 0 73 67" fill="none" xmlns="http://www.w3.org/2000/svg">
    <g filter="url(#filter0_d_548_1528)">
        <path d="M49.2742 14.5855H44.5691C44.3775 14.5855 44.1964 14.4786 44.1007 14.3076L42.8019 11.9347C42.1419 10.7375 40.8965 10 39.5338 10H33.4662C32.1035 10 30.8581 10.7375 30.1981 11.9347L28.8993 14.3076C28.8036 14.4786 28.6226 14.5855 28.4309 14.5855H23.7258C21.6713 14.5855 20 16.2636 20 18.3266V33.2589C20 35.3218 21.6713 37 23.7258 37H49.2742C51.3287 37 53 35.3218 53 33.2589V18.3266C53 16.2636 51.3287 14.5855 49.2742 14.5855ZM36.5 32.7352C32.689 32.7352 29.5806 29.6247 29.5806 25.7874C29.5806 21.9608 32.689 18.8397 36.5 18.8397C40.311 18.8397 43.4194 21.9608 43.4194 25.7874C43.4194 29.6247 40.311 32.7352 36.5 32.7352Z" fill="url(#paint0_linear_548_1528)"/>
        <path d="M36.5 29.5285C38.5577 29.5285 40.2258 27.8536 40.2258 25.7874C40.2258 23.7213 38.5577 22.0463 36.5 22.0463C34.4423 22.0463 32.7742 23.7213 32.7742 25.7874C32.7742 27.8536 34.4423 29.5285 36.5 29.5285Z" fill="url(#paint1_linear_548_1528)"/>
    </g>
    <defs>
        <filter id="filter0_d_548_1528" x="0" y="0" width="73" height="67" filterUnits="userSpaceOnUse" color-interpolation-filters="sRGB">
            <feFlood flood-opacity="0" result="BackgroundImageFix"/>
            <feColorMatrix in="SourceAlpha" type="matrix" values="0 0 0 0 0 0 0 0 0 0 0 0 0 0 0 0 0 0 127 0" result="hardAlpha"/>
            <feOffset dy="10"/>
            <feGaussianBlur stdDeviation="10"/>
            <feComposite in2="hardAlpha" operator="out"/>
            <feColorMatrix type="matrix" values="0 0 0 0 1 0 0 0 0 0.729412 0 0 0 0 0 0 0 0 0.25 0"/>
            <feBlend mode="normal" in2="BackgroundImageFix" result="effect1_dropShadow_548_1528"/>
            <feBlend mode="normal" in="SourceGraphic" in2="effect1_dropShadow_548_1528" result="shape"/>
        </filter>
        <linearGradient id="paint0_linear_548_1528" x1="23.3456" y1="10" x2="53.3407" y2="13.7485" gradientUnits="userSpaceOnUse">
            <stop stop-color="#FFBA00"/>
            <stop offset="1" stop-color="#FF9900"/>
        </linearGradient>
        <linearGradient id="paint1_linear_548_1528" x1="23.3456" y1="10" x2="53.3407" y2="13.7485" gradientUnits="userSpaceOnUse">
            <stop stop-color="#FFBA00"/>
            <stop offset="1" stop-color="#FF9900"/>
        </linearGradient>
    </defs>
</svg>
