<svg width="35" height="25" viewBox="0 0 35 25" fill="none" xmlns="http://www.w3.org/2000/svg">
    <path d="M30.5266 8.04685C30.7191 8.86497 30.8306 9.70581 30.8306 10.5694C30.8306 17.2382 24.8369 22.7977 16.9444 23.9918C18.6134 24.6281 20.4837 25 22.4766 25C24.3556 25 26.1297 24.6736 27.7309 24.1054C29.7588 24.7583 31.9725 24.9277 33.8034 24.9277C32.9767 23.9913 32.2764 22.9614 31.7188 21.8618C33.7487 20.1512 35 17.8849 35 15.3892C35 12.4391 33.2566 9.80911 30.5266 8.04685ZM27.5494 10.5694C27.5494 4.73308 21.3828 0 13.7747 0C6.16656 0 0 4.73308 0 10.5694C0 13.6146 1.68656 16.3499 4.37281 18.2795C3.69915 19.909 2.74982 21.4245 1.56187 22.7667C4.31375 22.7667 7.8575 22.4258 10.5853 20.8433C11.6112 21.0313 12.6766 21.1408 13.7747 21.1408C21.3828 21.1387 27.5494 16.4077 27.5494 10.5694Z" fill="url(#paint0_linear_548_1526)"/>
    <defs>
        <linearGradient id="paint0_linear_548_1526" x1="3.54839" y1="8.96819e-08" x2="35.2094" y2="4.53223" gradientUnits="userSpaceOnUse">
            <stop stop-color="#FFBA00"/>
            <stop offset="1" stop-color="#FF9900"/>
        </linearGradient>
    </defs>
</svg>
