<svg width="70" height="64" viewBox="0 0 70 64" fill="none" xmlns="http://www.w3.org/2000/svg">
    <g filter="url(#filter0_d_548_1527)">
        <path d="M49.9651 32.026L46.0374 13.0316C45.6742 11.2741 44.1314 10 42.3679 10C30.5966 10 41.9265 10 27.6321 10C25.8686 10 24.3258 11.2741 23.9626 13.0316L20.0349 32.026C19.8517 32.9107 20.4078 33.7779 21.2766 33.9645C22.1498 34.151 22.9984 33.5816 23.1805 32.7001L23.8137 29.6358H26.9571L26.4632 32.026C26.28 32.9107 26.8361 33.7779 27.7049 33.9645C28.5728 34.151 29.4256 33.5848 29.6088 32.7001L33.6254 13.2726H36.3735L40.3912 32.7001C40.5744 33.5848 41.4283 34.151 42.2951 33.9645C43.1639 33.779 43.72 32.9107 43.5368 32.026L43.0429 29.6358H46.1863L46.8195 32.7001C47.0016 33.5826 47.8523 34.151 48.7234 33.9645C49.5922 33.7779 50.1483 32.9096 49.9651 32.026ZM28.5363 21.9997H25.3929L26.07 18.727H29.2135L28.5363 21.9997ZM24.2647 27.4541L24.9418 24.1814H28.0853L27.4082 27.4541H24.2647ZM29.6645 16.5453H26.52L27.1071 13.7057C27.1596 13.4548 27.3803 13.2726 27.6321 13.2726H30.3416L29.6645 16.5453ZM40.7865 18.727H43.93L44.6071 21.9997H41.4637L40.7865 18.727ZM42.3679 13.2726C42.6197 13.2726 42.8404 13.4548 42.8918 13.7057L43.48 16.5453H40.3355L39.6584 13.2726H42.3679ZM42.5908 27.4541L41.9136 24.1814H45.0571L45.7342 27.4541H42.5908Z" fill="url(#paint0_linear_548_1527)"/>
    </g>
    <defs>
        <filter id="filter0_d_548_1527" x="0" y="0" width="70" height="64" filterUnits="userSpaceOnUse" color-interpolation-filters="sRGB">
            <feFlood flood-opacity="0" result="BackgroundImageFix"/>
            <feColorMatrix in="SourceAlpha" type="matrix" values="0 0 0 0 0 0 0 0 0 0 0 0 0 0 0 0 0 0 127 0" result="hardAlpha"/>
            <feOffset dy="10"/>
            <feGaussianBlur stdDeviation="10"/>
            <feComposite in2="hardAlpha" operator="out"/>
            <feColorMatrix type="matrix" values="0 0 0 0 1 0 0 0 0 0.729412 0 0 0 0 0 0 0 0 0.25 0"/>
            <feBlend mode="normal" in2="BackgroundImageFix" result="effect1_dropShadow_548_1527"/>
            <feBlend mode="normal" in="SourceGraphic" in2="effect1_dropShadow_548_1527" result="shape"/>
        </filter>
        <linearGradient id="paint0_linear_548_1527" x1="23.0415" y1="10" x2="50.2904" y2="13.4827" gradientUnits="userSpaceOnUse">
            <stop stop-color="#FFBA00"/>
            <stop offset="1" stop-color="#FF9900"/>
        </linearGradient>
    </defs>
</svg>
