<svg width="33" height="27" viewBox="0 0 33 27" fill="none" xmlns="http://www.w3.org/2000/svg">
    <path d="M29.2742 4.58549H24.5691C24.3775 4.58549 24.1964 4.47862 24.1007 4.30763L22.8019 1.93468C22.1419 0.737529 20.8965 0 19.5338 0H13.4662C12.1035 0 10.8581 0.737529 10.1981 1.93468L8.89934 4.30763C8.80357 4.47863 8.62256 4.58549 8.43095 4.58549H3.72581C1.6713 4.58549 0 6.26364 0 8.32658V23.2589C0 25.3218 1.6713 27 3.72581 27H29.2742C31.3287 27 33 25.3218 33 23.2589V8.32658C33 6.26364 31.3287 4.58549 29.2742 4.58549ZM16.5 22.7352C12.689 22.7352 9.58065 19.6247 9.58065 15.7874C9.58065 11.9608 12.689 8.83968 16.5 8.83968C20.311 8.83968 23.4194 11.9608 23.4194 15.7874C23.4194 19.6247 20.311 22.7352 16.5 22.7352Z" fill="url(#paint0_linear_548_1528)"/>
    <path d="M16.5 19.5285C18.5577 19.5285 20.2258 17.8536 20.2258 15.7874C20.2258 13.7213 18.5577 12.0463 16.5 12.0463C14.4423 12.0463 12.7742 13.7213 12.7742 15.7874C12.7742 17.8536 14.4423 19.5285 16.5 19.5285Z" fill="url(#paint1_linear_548_1528)"/>
    <defs>
        <linearGradient id="paint0_linear_548_1528" x1="3.34562" y1="9.68565e-08" x2="33.3407" y2="3.74851" gradientUnits="userSpaceOnUse">
            <stop stop-color="#FFBA00"/>
            <stop offset="1" stop-color="#FF9900"/>
        </linearGradient>
        <linearGradient id="paint1_linear_548_1528" x1="3.34562" y1="9.68565e-08" x2="33.3407" y2="3.74851" gradientUnits="userSpaceOnUse">
            <stop stop-color="#FFBA00"/>
            <stop offset="1" stop-color="#FF9900"/>
        </linearGradient>
    </defs>
</svg>
