<svg width="218" height="43" viewBox="0 0 218 43" fill="none" xmlns="http://www.w3.org/2000/svg">
    <path fill-rule="evenodd" clip-rule="evenodd" d="M27.132 0.533888C33.6737 -1.32595 40.4823 1.83209 44.4506 7.5405C47.2449 11.5548 48.3544 17.2632 45.9882 23.2386C44.0915 28.0309 40.1739 31.5434 32.2558 35.5209C27.9791 37.6707 23.9418 40.327 24.1996 42.9924C21.6906 40.7505 21.5709 35.1848 24.6645 32.7357C20.641 32.8508 15.7843 29.7158 13.2431 25.8718C9.58788 19.6939 10.6145 12.8162 15.1674 8.55788C15.4344 8.30929 15.706 8.0745 15.9822 7.85353C15.7751 8.09752 15.5725 8.35071 15.3745 8.61312C6.85337 20.1404 20.6042 35.2815 33.7611 27.7639C40.4869 23.9199 43.0419 15.7026 39.8701 9.12871C39.5892 8.48882 39.2532 7.86735 38.8573 7.26889C37.3427 4.99013 33.8578 0.810101 27.1274 0.533888" fill="#1D9BD7"/>
    <path d="M26.2666 1.04028C22.6482 2.79423 21.8012 6.59216 21.8012 6.59216C21.8012 6.59216 8.59359 1.82748 6.81661 14.7727C5.85447 21.7885 10.2923 26.4197 15.0201 29.4166C21.1935 33.3296 20.7792 39.5674 20.7792 39.5674C20.7792 39.5674 19.4902 35.1894 14.9833 33.394C1.40283 27.9849 -1.00022 20.1128 0.316397 13.7829C3.72303 -2.59653 20.9449 4.1937 20.9449 4.1937C20.9449 4.1937 22.0221 1.3257 26.2666 1.04028Z" fill="#1D9BD7"/>
    <path d="M60.6275 17.544H61.8889L62.5932 19.9056C62.6945 19.9839 62.8096 20.0575 62.9385 20.122C63.0628 20.1864 63.2055 20.2417 63.3574 20.2877C63.5139 20.3384 63.6843 20.3752 63.8822 20.3982C64.0756 20.4258 64.2965 20.435 64.5451 20.435C65.2771 20.435 65.8387 20.2233 66.2254 19.7951C66.6121 19.367 66.8055 18.7133 66.8055 17.834C66.8055 17.475 66.7732 17.1389 66.7134 16.8351C66.6535 16.5312 66.5339 16.2642 66.3543 16.0386C66.1748 15.8131 65.9216 15.6335 65.5993 15.5046C65.2771 15.3757 64.8536 15.3113 64.3334 15.3113H63.1318V14.0085H64.117C64.3978 14.0085 64.6694 13.9624 64.9364 13.875C65.2034 13.7875 65.4382 13.6402 65.6454 13.4422C65.8525 13.2397 66.0136 12.9819 66.1379 12.655C66.2622 12.3328 66.3221 11.9369 66.3221 11.4673C66.3221 11.1082 66.2761 10.7998 66.1886 10.542C66.1011 10.2888 65.9768 10.0771 65.8203 9.91593C65.6638 9.7548 65.475 9.6351 65.2587 9.56144C65.0423 9.48779 64.8029 9.45096 64.5359 9.45096C64.2689 9.45096 64.0525 9.46938 63.8638 9.51081C63.6704 9.55224 63.5093 9.60748 63.3758 9.67653C63.2423 9.75019 63.1318 9.83306 63.0536 9.92513C62.9753 10.0172 62.9109 10.1185 62.874 10.2198L62.4643 11.6377H60.9359L60.7058 8.86171C60.8899 8.8525 61.1339 8.81567 61.4377 8.75582C61.7416 8.69598 62.0684 8.63153 62.4229 8.56248C62.7728 8.49343 63.1364 8.42898 63.5139 8.37373C63.8914 8.31849 64.2413 8.28626 64.5727 8.28626C66.1011 8.28626 67.252 8.52565 68.0208 9.00442C68.7896 9.48319 69.1763 10.229 69.1763 11.2418C69.1763 11.7435 69.0842 12.1855 68.9047 12.5676C68.7251 12.9497 68.4904 13.2719 68.1957 13.5435C67.9057 13.8105 67.5696 14.0269 67.2014 14.1926C66.8285 14.3537 66.4464 14.4734 66.0597 14.5471C66.7502 14.5609 67.3441 14.6484 67.8321 14.8233C68.32 14.9936 68.7251 15.2238 69.0382 15.5046C69.3512 15.7901 69.5814 16.1169 69.7287 16.4852C69.876 16.8535 69.9497 17.2448 69.9497 17.6591C69.9497 18.2714 69.8484 18.8192 69.6505 19.3072C69.4479 19.7951 69.1257 20.2095 68.6699 20.5501C68.2188 20.8908 67.6295 21.1532 66.9113 21.3327C66.1886 21.5123 65.3047 21.6043 64.2597 21.6043C63.8822 21.6043 63.4909 21.5767 63.0904 21.5215C62.6899 21.4662 62.3078 21.4018 61.9487 21.3235C61.5896 21.2453 61.2628 21.1624 60.9774 21.0749C60.6919 20.9875 60.471 20.9092 60.3145 20.8401L60.6413 17.5532L60.6275 17.544Z" fill="#414042"/>
    <path d="M76.7538 21.6918C75.7595 21.701 74.894 21.5537 74.1574 21.2453C73.4208 20.9368 72.8132 20.4949 72.3344 19.924C71.8556 19.3532 71.492 18.6581 71.2572 17.8432C71.0178 17.0284 70.9027 16.1169 70.9027 15.1087C70.9027 14.1006 71.05 13.1338 71.34 12.2914C71.6301 11.4489 72.0444 10.7308 72.583 10.1323C73.117 9.53384 73.7615 9.07348 74.5119 8.75123C75.2623 8.42898 76.0955 8.26326 77.0116 8.26326C78.0198 8.26326 78.8899 8.41517 79.6172 8.72361C80.3492 9.02745 80.9477 9.46938 81.4218 10.0402C81.896 10.6111 82.2413 11.3062 82.4714 12.1118C82.697 12.922 82.8121 13.829 82.8121 14.8371C82.8121 15.8453 82.6648 16.8121 82.3748 17.6545C82.0847 18.497 81.6704 19.2151 81.141 19.809C80.6116 20.4028 79.9763 20.8632 79.2351 21.19C78.494 21.5169 77.6699 21.6826 76.7676 21.6872L76.7538 21.6918ZM76.8413 20.5087C77.2924 20.5087 77.7022 20.3936 78.075 20.1588C78.4433 19.9241 78.761 19.5742 79.0188 19.1046C79.2812 18.6351 79.4791 18.0458 79.6218 17.3415C79.7646 16.6325 79.8336 15.8085 79.8336 14.8555C79.8336 13.9026 79.7645 13.097 79.6264 12.411C79.4883 11.7251 79.295 11.1681 79.0372 10.7261C78.784 10.2888 78.4709 9.96657 78.1073 9.7548C77.739 9.54764 77.3247 9.44177 76.8643 9.44177C76.404 9.44177 75.9942 9.55684 75.6214 9.79163C75.2531 10.0218 74.9354 10.3763 74.6776 10.8458C74.4152 11.3154 74.2173 11.9047 74.0746 12.6136C73.9318 13.3226 73.8628 14.1512 73.8628 15.1041C73.8628 16.0571 73.9318 16.8811 74.0699 17.5624C74.2081 18.2484 74.406 18.8054 74.6638 19.2473C74.9216 19.6847 75.2347 20.0069 75.5983 20.2095C75.9666 20.412 76.3809 20.5133 76.8413 20.5133V20.5087Z" fill="#414042"/>
    <path d="M83.8111 19.3992C83.8433 19.4315 83.9031 19.4775 83.986 19.5373C84.0689 19.5926 84.1701 19.6524 84.2852 19.7077C84.4003 19.7629 84.5338 19.8136 84.6811 19.855C84.8285 19.8964 84.9758 19.9148 85.1323 19.9148C85.3026 19.9148 85.4822 19.8504 85.6663 19.7169C85.8504 19.5834 86.03 19.3716 86.2049 19.0816C86.3799 18.787 86.541 18.4095 86.6929 17.9445C86.8448 17.4796 86.9783 16.9087 87.098 16.232C87.2131 15.5553 87.3052 14.7727 87.3742 13.8796C87.4387 12.9865 87.4709 11.9691 87.4709 10.8228V9.84227L85.3579 9.57525V8.42437H96.2729V9.57525L94.6662 9.84227V20.0852L96.5997 20.3246V21.4939H90.1087V20.3154L91.964 20.076V9.84227H88.9164V11.1819C88.9164 12.052 88.8888 12.9128 88.8335 13.7645C88.7783 14.6161 88.6908 15.431 88.5758 16.2044C88.4607 16.9778 88.3041 17.6959 88.1154 18.3542C87.9266 19.0171 87.6965 19.588 87.4249 20.076C87.1533 20.5639 86.8356 20.9414 86.4719 21.2176C86.1082 21.4939 85.6985 21.632 85.2382 21.632C84.8699 21.632 84.5522 21.5951 84.276 21.5261C83.9998 21.4524 83.7374 21.3373 83.4796 21.1762L83.8157 19.3992H83.8111Z" fill="#414042"/>
    <path d="M103.137 21.6918C102.143 21.701 101.277 21.5537 100.54 21.2453C99.8039 20.9368 99.1962 20.4949 98.7175 19.924C98.2387 19.3532 97.875 18.6581 97.6402 17.8432C97.4009 17.0284 97.2858 16.1169 97.2858 15.1087C97.2858 14.1006 97.4331 13.1338 97.7231 12.2914C98.0131 11.4489 98.4274 10.7308 98.9661 10.1323C99.5001 9.53384 100.145 9.07348 100.895 8.75123C101.645 8.42898 102.479 8.26326 103.395 8.26326C104.403 8.26326 105.273 8.41517 106 8.72361C106.732 9.02745 107.331 9.46938 107.805 10.0402C108.279 10.6111 108.624 11.3062 108.854 12.1118C109.08 12.922 109.195 13.829 109.195 14.8371C109.195 15.8453 109.048 16.8121 108.758 17.6545C108.468 18.497 108.053 19.2151 107.524 19.809C106.995 20.4028 106.359 20.8632 105.618 21.19C104.877 21.5169 104.053 21.6826 103.151 21.6872L103.137 21.6918ZM103.224 20.5087C103.675 20.5087 104.085 20.3936 104.458 20.1588C104.826 19.9241 105.144 19.5742 105.402 19.1046C105.664 18.6351 105.862 18.0458 106.005 17.3415C106.148 16.6325 106.217 15.8085 106.217 14.8555C106.217 13.9026 106.148 13.097 106.009 12.411C105.871 11.7251 105.678 11.1681 105.42 10.7261C105.167 10.2888 104.854 9.96657 104.49 9.7548C104.122 9.54764 103.708 9.44177 103.247 9.44177C102.787 9.44177 102.377 9.55684 102.004 9.79163C101.636 10.0218 101.318 10.3763 101.061 10.8458C100.798 11.3154 100.6 11.9047 100.458 12.6136C100.315 13.3226 100.246 14.1512 100.246 15.1041C100.246 16.0571 100.315 16.8811 100.453 17.5624C100.591 18.2484 100.789 18.8054 101.047 19.2473C101.305 19.6847 101.618 20.0069 101.981 20.2095C102.35 20.412 102.764 20.5133 103.224 20.5133V20.5087Z" fill="#414042"/>
    <path d="M112.417 20.3154L114.779 20.076V9.67654L112.376 9.83306L111.722 13.4837H110.125L110.383 8.42898H121.855L122.122 13.4837H120.515L119.88 9.83306L117.537 9.67654V20.0806L120.046 20.3107V21.4893H112.422V20.3107L112.417 20.3154Z" fill="#414042"/>
    <path d="M122.172 20.3154L123.282 20.076L127.421 8.37374H130.178L134.307 20.076L135.5 20.3154V21.4939H129.929V20.3154L131.329 20.076L130.684 17.9813H126.021L125.413 20.0852L126.831 20.3154V21.4939H122.186L122.177 20.3154H122.172ZM130.27 16.6417L128.581 11.1036L128.281 9.85147L128.005 11.1036L126.408 16.6417H130.27Z" fill="#414042"/>
    <path d="M134.768 20.3154L135.481 20.0852C135.629 20.0529 135.776 19.9286 135.914 19.7169C136.052 19.5051 136.199 19.2473 136.347 18.9435C136.494 18.6397 136.655 18.3082 136.821 17.9537C136.987 17.5993 137.175 17.2494 137.373 16.9179C137.576 16.5865 137.797 16.2826 138.046 16.011C138.29 15.7394 138.566 15.5415 138.87 15.4126C138.474 15.3205 138.124 15.1732 137.815 14.966C137.507 14.7589 137.249 14.5103 137.037 14.211C136.83 13.9118 136.669 13.5711 136.563 13.189C136.453 12.807 136.402 12.3834 136.402 11.9277C136.402 11.3614 136.517 10.8504 136.743 10.3993C136.968 9.94815 137.291 9.56605 137.705 9.25301C138.119 8.93997 138.621 8.70059 139.21 8.53486C139.799 8.36913 140.458 8.28626 141.185 8.28626C141.397 8.28626 141.595 8.29547 141.788 8.30928C141.977 8.32309 142.166 8.3369 142.35 8.35531C142.534 8.37373 142.723 8.38754 142.916 8.40135C143.109 8.41516 143.312 8.42437 143.528 8.42437H146.834V9.57525L145.407 9.85147V20.0852L146.926 20.3154V21.4939H141.24L141.222 20.3154L142.732 20.0898V15.7901C142.667 15.7947 142.575 15.7993 142.447 15.8039C142.322 15.8039 142.18 15.8085 142.018 15.8131C141.857 15.8131 141.692 15.8131 141.517 15.8131H141.024C140.817 15.9604 140.614 16.2044 140.416 16.545C140.218 16.8811 140.03 17.2632 139.846 17.6821C139.661 18.101 139.482 18.5384 139.307 18.9849C139.132 19.4361 138.966 19.8458 138.805 20.2187C138.644 20.5916 138.492 20.8954 138.34 21.1348C138.193 21.3742 138.05 21.4893 137.912 21.4893H134.763V20.3107L134.768 20.3154ZM141.517 14.6484H141.807C141.922 14.6484 142.037 14.6484 142.152 14.6392C142.267 14.63 142.377 14.6254 142.483 14.6208C142.585 14.6162 142.667 14.6023 142.732 14.5885V9.57525C142.677 9.57065 142.612 9.56144 142.548 9.54763C142.483 9.53382 142.4 9.52462 142.304 9.51081C142.207 9.5016 142.087 9.48779 141.949 9.48319C141.811 9.47398 141.641 9.46938 141.438 9.46938C140.656 9.46478 140.08 9.65812 139.721 10.0494C139.362 10.4407 139.178 11.0438 139.178 11.8586C139.178 12.8208 139.381 13.5251 139.781 13.9762C140.182 14.4274 140.762 14.6484 141.517 14.6484Z" fill="#414042"/>
    <path d="M153.813 20.3154L155.203 20.076L155.212 9.83306L153.813 9.57526V8.42437H159.213V9.57526L157.891 9.83306V14.3215H159.332L162.104 9.85608L160.806 9.57067V8.41978H165.579V9.57067L164.111 9.82846L160.893 14.455C161.215 14.5931 161.519 14.8187 161.818 15.1364C162.113 15.454 162.394 15.8131 162.665 16.2136C162.932 16.6141 163.19 17.033 163.434 17.4611C163.678 17.8939 163.904 18.2944 164.111 18.6627C164.318 19.031 164.511 19.344 164.691 19.6018C164.866 19.8596 165.027 20.0161 165.17 20.0668L165.975 20.3061V21.4847H163.176C162.969 21.4847 162.767 21.3972 162.573 21.2223C162.375 21.0473 162.182 20.8171 161.989 20.5317C161.795 20.2463 161.607 19.9195 161.418 19.5558C161.229 19.1921 161.04 18.8192 160.856 18.4371C160.672 18.055 160.483 17.6821 160.295 17.3184C160.106 16.9548 159.912 16.6325 159.719 16.3425C159.526 16.0571 159.328 15.8269 159.13 15.652C158.932 15.477 158.729 15.3895 158.522 15.3895H157.887V20.0668L159.365 20.3246V21.4847H153.808V20.3061L153.813 20.3154Z" fill="#414042"/>
    <path d="M165.423 20.3154L166.532 20.076L170.671 8.37374H173.428L177.558 20.076L178.75 20.3154V21.4939H173.18V20.3154L174.579 20.076L173.935 17.9813H169.271L168.664 20.0852L170.082 20.3154V21.4939H165.437L165.427 20.3154H165.423ZM173.52 16.6417L171.831 11.1036L171.532 9.85147L171.256 11.1036L169.658 16.6417H173.52Z" fill="#414042"/>
    <path d="M178.971 20.3153L180.371 20.076V9.83305L178.939 9.57525V8.42437H191.889V9.57525L190.393 9.84227V20.076L191.981 20.3153V21.4939H186.392V20.3153L187.7 20.076V9.73638H183.091V20.076L184.56 20.3153V21.4939H178.98V20.3153H178.971Z" fill="#414042"/>
    <path d="M193.067 19.3992C193.104 19.4315 193.159 19.4775 193.242 19.5373C193.325 19.5926 193.426 19.6524 193.541 19.7077C193.656 19.7629 193.79 19.8136 193.937 19.855C194.085 19.8964 194.232 19.9148 194.388 19.9148C194.559 19.9148 194.738 19.8504 194.922 19.7169C195.107 19.5834 195.286 19.3716 195.461 19.0816C195.636 18.787 195.797 18.4095 195.949 17.9445C196.101 17.4796 196.234 16.9087 196.354 16.232C196.469 15.5553 196.561 14.7727 196.63 13.8796C196.695 12.9865 196.727 11.9691 196.727 10.8228V9.84227L194.614 9.57525V8.42437H205.524V9.57525L203.918 9.84227V20.0852L205.851 20.3246V21.4939H199.36V20.3154L201.215 20.076V9.84227H198.168V11.1819C198.168 12.052 198.14 12.9128 198.085 13.7645C198.03 14.6161 197.942 15.431 197.827 16.2044C197.712 16.9778 197.556 17.6959 197.367 18.3542C197.178 19.0171 196.948 19.588 196.676 20.076C196.405 20.5639 196.087 20.9414 195.723 21.2176C195.36 21.4939 194.95 21.632 194.49 21.632C194.121 21.632 193.804 21.5951 193.527 21.5261C193.251 21.4524 192.984 21.3373 192.731 21.1762L193.067 19.3992Z" fill="#414042"/>
    <path d="M205.847 20.3154L206.56 20.0852C206.708 20.0529 206.855 19.9286 206.993 19.7169C207.136 19.5051 207.278 19.2473 207.426 18.9435C207.573 18.6397 207.734 18.3082 207.904 17.9537C208.075 17.5946 208.259 17.2494 208.457 16.9179C208.659 16.5865 208.88 16.2826 209.124 16.011C209.368 15.7394 209.645 15.5415 209.948 15.4126C209.552 15.3205 209.203 15.1732 208.894 14.966C208.586 14.7589 208.328 14.5103 208.116 14.211C207.909 13.9118 207.748 13.5711 207.637 13.189C207.527 12.807 207.476 12.3834 207.476 11.9277C207.476 11.3614 207.591 10.8504 207.817 10.3993C208.043 9.94815 208.365 9.56605 208.779 9.25301C209.193 8.93997 209.695 8.70059 210.284 8.53486C210.874 8.36913 211.532 8.28626 212.259 8.28626C212.471 8.28626 212.674 8.29547 212.862 8.30928C213.051 8.32309 213.24 8.3369 213.424 8.35531C213.608 8.37373 213.797 8.38754 213.99 8.40135C214.184 8.41516 214.386 8.42437 214.603 8.42437H217.908V9.57525L216.481 9.85147V20.0852L218 20.3154V21.4939H212.315L212.296 20.3154L213.806 20.0898V15.7901C213.742 15.7947 213.65 15.7993 213.521 15.8039C213.396 15.8039 213.254 15.8085 213.093 15.8131C212.932 15.8131 212.766 15.8131 212.591 15.8131H212.098C211.891 15.9604 211.689 16.2044 211.495 16.545C211.297 16.8811 211.108 17.2632 210.924 17.6821C210.74 18.101 210.561 18.5384 210.386 18.9849C210.211 19.4361 210.045 19.8458 209.884 20.2187C209.723 20.5916 209.571 20.8954 209.419 21.1348C209.272 21.3742 209.129 21.4893 208.991 21.4893H205.842V20.3107L205.847 20.3154ZM212.595 14.6484H212.885C213.001 14.6484 213.116 14.6484 213.235 14.6392C213.35 14.6346 213.461 14.6254 213.567 14.6208C213.673 14.6162 213.751 14.6023 213.815 14.5885V9.57525C213.76 9.57065 213.696 9.56144 213.631 9.54763C213.567 9.53382 213.484 9.52462 213.387 9.51081C213.291 9.5016 213.171 9.48779 213.033 9.48319C212.89 9.47398 212.724 9.46938 212.522 9.46938C211.739 9.46478 211.164 9.65812 210.805 10.0494C210.446 10.4407 210.266 11.0438 210.266 11.8586C210.266 12.8208 210.469 13.5251 210.869 13.9762C211.27 14.4274 211.85 14.6484 212.605 14.6484H212.595Z" fill="#414042"/>
    <path d="M62.1513 39.0978C61.8106 39.0978 61.516 39.0242 61.2674 38.8861C61.0188 38.7434 60.8162 38.55 60.6551 38.3106C60.494 38.0713 60.3789 37.795 60.3006 37.4774C60.2224 37.1598 60.1855 36.8329 60.1855 36.4876C60.1855 35.9076 60.2408 35.369 60.3559 34.8672C60.471 34.37 60.6229 33.9189 60.8162 33.5091C61.0096 33.0994 61.2398 32.7403 61.4976 32.4227C61.76 32.1096 62.0362 31.8427 62.3308 31.6263C62.6254 31.4099 62.9339 31.2488 63.2469 31.1383C63.5599 31.0278 63.873 30.9726 64.1768 30.9726C64.2275 30.9726 64.2735 30.9588 64.3103 30.9311C64.3472 30.9035 64.384 30.8621 64.4208 30.8069L64.7293 30.3235H65.231L65.0423 31.4559C65.0331 31.525 65.0193 31.5848 65.0055 31.6309C64.9917 31.6769 64.9686 31.7138 64.941 31.7414C64.9134 31.769 64.872 31.7874 64.8259 31.7966C64.7799 31.8104 64.7154 31.815 64.6372 31.815C64.3886 31.815 64.14 31.8334 63.8914 31.8657C63.6428 31.8979 63.408 31.9623 63.1779 32.0498C62.9477 32.1373 62.7267 32.2616 62.5195 32.4181C62.3078 32.5746 62.1144 32.7772 61.9303 33.0212C61.7461 33.2651 61.585 33.5598 61.4331 33.9096C61.2858 34.2549 61.1569 34.6646 61.0556 35.1342C61.1523 34.9178 61.2766 34.7107 61.4193 34.5173C61.562 34.324 61.7277 34.1536 61.9165 34.0063C62.1006 33.859 62.3078 33.7439 62.5288 33.661C62.7497 33.5736 62.9891 33.5321 63.2469 33.5321C63.5599 33.5321 63.8316 33.5828 64.0479 33.6795C64.2689 33.7761 64.4484 33.9189 64.5865 34.0984C64.7246 34.2779 64.8259 34.4897 64.8858 34.7429C64.9502 34.9961 64.9778 35.2723 64.9778 35.5715C64.9778 35.8707 64.9456 36.1884 64.8812 36.483C64.8167 36.7777 64.7247 37.0585 64.6096 37.3163C64.4899 37.5787 64.3472 37.8181 64.1768 38.0344C64.0065 38.2508 63.8177 38.4395 63.6106 38.5961C63.4034 38.7526 63.1732 38.8723 62.9293 38.9597C62.6853 39.0472 62.4229 39.0886 62.1513 39.0886V39.0978ZM62.2756 38.5454C62.4827 38.5454 62.6669 38.504 62.828 38.4211C62.9891 38.3383 63.1318 38.2278 63.2561 38.0897C63.3804 37.9516 63.4817 37.7904 63.5692 37.6063C63.6566 37.4222 63.7257 37.2288 63.7763 37.0262C63.827 36.8237 63.8684 36.6211 63.8914 36.414C63.9144 36.2068 63.9236 36.0089 63.9236 35.8247C63.9236 35.5715 63.9052 35.3413 63.873 35.1388C63.8408 34.9362 63.7809 34.7613 63.7027 34.6186C63.6244 34.4759 63.5231 34.3654 63.3988 34.2917C63.2745 34.2181 63.1226 34.1766 62.9431 34.1766C62.7635 34.1766 62.5932 34.2135 62.4367 34.2917C62.2802 34.37 62.1374 34.4713 62.0085 34.6048C61.8797 34.7383 61.7646 34.8902 61.6633 35.0605C61.562 35.2355 61.4745 35.415 61.4055 35.6037C61.3364 35.7925 61.2858 35.9812 61.249 36.1746C61.2167 36.3679 61.1983 36.5475 61.1983 36.7178C61.1983 36.9848 61.2213 37.2288 61.2628 37.4544C61.3088 37.6753 61.3733 37.8687 61.4653 38.0344C61.5574 38.1955 61.6679 38.3244 61.8014 38.4119C61.9349 38.504 62.0914 38.5454 62.2756 38.5454Z" fill="#1D9BD7"/>
    <path d="M65.4796 39.0978C65.452 39.0978 65.4106 39.0978 65.3646 39.084C65.3185 39.0748 65.2725 39.0656 65.2311 39.0564C65.185 39.0426 65.1482 39.0334 65.1114 39.015C65.0745 39.0012 65.0561 38.9874 65.0515 38.9782L65.2955 37.8779C65.2955 37.8779 65.3415 37.9009 65.4014 37.9193C65.4566 37.9377 65.5211 37.9562 65.5901 37.9746C65.6592 37.993 65.7236 38.0114 65.7881 38.0252C65.8525 38.039 65.8986 38.0436 65.9216 38.0436C65.9952 38.0436 66.0735 37.9884 66.1472 37.8825C66.2116 37.795 66.2761 37.6707 66.3405 37.5142C66.405 37.3577 66.4648 37.1782 66.5246 36.9802C66.5845 36.7777 66.6443 36.5613 66.6996 36.3265C66.7548 36.0917 66.8055 35.8477 66.8561 35.5945C66.9021 35.3414 66.9482 35.0835 66.9896 34.8257C67.031 34.5679 67.0679 34.3148 67.0955 34.0662L66.2162 33.9235L66.2807 33.4217H70.3042L69.7517 38.0897C69.7241 38.3383 69.7609 38.4626 69.8622 38.4626C69.9037 38.4626 69.9589 38.4488 70.0234 38.4165C70.0878 38.3889 70.1753 38.3244 70.2904 38.2324L70.4423 38.4948C70.4239 38.527 70.3778 38.5777 70.2996 38.6467C70.2259 38.7158 70.1338 38.7848 70.028 38.8539C69.9175 38.9229 69.7978 38.9828 69.6643 39.038C69.5308 39.0886 69.3973 39.1163 69.2592 39.1163C69.1579 39.1163 69.0658 39.1024 68.983 39.0794C68.9001 39.0564 68.831 39.015 68.7758 38.9643C68.7205 38.9137 68.6791 38.8447 68.6561 38.7572C68.6331 38.6743 68.6285 38.573 68.6423 38.4533L69.2085 34.0524H67.6525C67.5973 34.5081 67.5328 34.9639 67.4546 35.4196C67.3809 35.8754 67.298 36.2989 67.2106 36.6948C67.1231 37.0907 67.0356 37.4314 66.939 37.7306C66.8469 38.0298 66.7548 38.2462 66.6674 38.3843C66.6029 38.481 66.5339 38.5777 66.4648 38.6605C66.3958 38.7434 66.3175 38.8216 66.2254 38.8861C66.1334 38.9505 66.0321 39.0012 65.9124 39.038C65.7927 39.0748 65.65 39.0932 65.4842 39.0932L65.4796 39.0978Z" fill="#1D9BD7"/>
    <path d="M72.8637 39.1209C72.5875 39.1209 72.3527 39.0656 72.1593 38.9597C71.966 38.8539 71.8049 38.7066 71.6806 38.5178C71.5563 38.3291 71.4688 38.1035 71.4136 37.8457C71.3583 37.5879 71.3307 37.3025 71.3307 36.994C71.3307 36.7408 71.3629 36.4738 71.4274 36.193C71.4918 35.9122 71.5839 35.6314 71.7128 35.3598C71.8371 35.0835 71.989 34.8258 72.1731 34.5726C72.3573 34.324 72.5644 34.103 72.7992 33.9143C73.034 33.7255 73.301 33.5736 73.591 33.4631C73.8811 33.3526 74.1941 33.2974 74.5348 33.2974C74.7005 33.2974 74.8708 33.3158 75.0458 33.348C75.2207 33.3848 75.3772 33.4217 75.5153 33.4677L76.1092 33.302L75.4647 38.0943C75.4463 38.2278 75.4601 38.3245 75.4923 38.3843C75.5291 38.4395 75.566 38.4718 75.612 38.4718C75.658 38.4718 75.7133 38.458 75.7777 38.4257C75.8422 38.3981 75.9296 38.3337 76.0447 38.2416L76.1966 38.5086C76.1782 38.5362 76.1414 38.5869 76.0769 38.6559C76.0125 38.725 75.9296 38.794 75.833 38.8631C75.7363 38.9321 75.6212 38.992 75.4923 39.0472C75.3634 39.0979 75.2299 39.1255 75.0872 39.1255C74.9905 39.1255 74.8984 39.1117 74.8156 39.0886C74.7327 39.0656 74.6637 39.0242 74.6084 38.9736C74.5532 38.9229 74.5117 38.8539 74.4841 38.7664C74.4565 38.6789 74.4473 38.5776 74.4519 38.4626L74.4841 38.1357C74.3874 38.2554 74.2816 38.3751 74.1619 38.4948C74.0422 38.6145 73.9133 38.7204 73.7752 38.8124C73.6371 38.9045 73.4898 38.9828 73.3378 39.038C73.1813 39.0932 73.0248 39.1255 72.8637 39.1255V39.1209ZM73.0662 38.4165C73.2089 38.4165 73.3517 38.3797 73.499 38.306C73.6463 38.2324 73.7844 38.1449 73.9179 38.0344C74.0514 37.9239 74.1757 37.8042 74.2908 37.6707C74.4059 37.5372 74.5025 37.4175 74.5854 37.3025L75.0089 34.0524C74.9215 33.9971 74.8248 33.9557 74.7143 33.9327C74.6084 33.9096 74.4933 33.8958 74.3736 33.8958C74.1389 33.8958 73.9271 33.9419 73.7383 34.0339C73.5496 34.126 73.3793 34.2503 73.232 34.4022C73.0846 34.5541 72.9557 34.7337 72.8453 34.9362C72.7348 35.1342 72.6473 35.346 72.5736 35.5669C72.5046 35.7879 72.4494 36.0135 72.4171 36.239C72.3849 36.4646 72.3665 36.6764 72.3665 36.8789C72.3665 37.1183 72.3803 37.3347 72.4079 37.5234C72.4355 37.7122 72.477 37.8733 72.5322 38.0068C72.5875 38.1403 72.6611 38.2416 72.7486 38.3106C72.8361 38.3797 72.9419 38.4165 73.0662 38.4165Z" fill="#1D9BD7"/>
    <path d="M76.9103 37.8134C76.9103 37.5603 76.9563 37.3393 77.0484 37.1551C77.1405 36.9664 77.2601 36.8007 77.4121 36.6487C77.564 36.4968 77.7343 36.3587 77.9277 36.2344C78.121 36.1055 78.3236 35.9766 78.5307 35.8431C78.7057 35.7234 78.8576 35.613 78.9819 35.5071C79.1062 35.4012 79.2028 35.2907 79.2811 35.1848C79.3548 35.0743 79.41 34.9639 79.4422 34.8534C79.4745 34.7383 79.4929 34.6232 79.4929 34.4943C79.4929 34.4252 79.4791 34.3562 79.4606 34.2917C79.4376 34.2227 79.4054 34.1674 79.3594 34.1168C79.3133 34.0662 79.2581 34.0247 79.189 33.9925C79.12 33.9603 79.0417 33.9465 78.9542 33.9465C78.7977 33.9465 78.6504 33.9649 78.5077 33.9925C78.365 34.0247 78.2361 34.0616 78.1256 34.103C78.0151 34.1444 77.9185 34.1859 77.8448 34.2273C77.7711 34.2687 77.7205 34.3009 77.7021 34.3194L77.5916 33.8314C77.6468 33.7899 77.7251 33.7347 77.8172 33.6749C77.9138 33.615 78.0243 33.5552 78.1578 33.4999C78.2867 33.4447 78.4387 33.3986 78.6044 33.3618C78.7701 33.3204 78.9496 33.302 79.1476 33.302C79.3548 33.302 79.5435 33.325 79.723 33.3802C79.898 33.4309 80.0499 33.5045 80.1788 33.5966C80.3077 33.6887 80.4044 33.8038 80.478 33.9419C80.5471 34.08 80.5839 34.2319 80.5839 34.4022C80.5839 34.6738 80.5287 34.9132 80.4182 35.1158C80.3077 35.3183 80.165 35.4979 79.9993 35.659C79.8335 35.8201 79.6494 35.9628 79.456 36.0917C79.2627 36.216 79.0785 36.3403 78.9128 36.46C78.7655 36.5659 78.632 36.6626 78.5123 36.7546C78.3926 36.8467 78.2913 36.9388 78.2085 37.0309C78.1256 37.1229 78.0612 37.2242 78.0151 37.3301C77.9691 37.436 77.9461 37.5557 77.9461 37.6892C77.9461 37.7858 77.9599 37.8825 77.9875 37.9746C78.0151 38.0666 78.0612 38.1495 78.1256 38.2186C78.1901 38.2876 78.2729 38.3475 78.3788 38.3889C78.4847 38.4303 78.609 38.4533 78.7609 38.4533C78.9128 38.4533 79.0371 38.4395 79.143 38.4165C79.2535 38.3935 79.3502 38.3567 79.4376 38.3152C79.5251 38.2738 79.6126 38.2232 79.6954 38.1679C79.7783 38.1127 79.8658 38.0528 79.967 37.9838L80.1189 38.4625C80.0315 38.5592 79.921 38.6513 79.7875 38.7342C79.654 38.817 79.5159 38.8861 79.3594 38.9459C79.2074 39.0058 79.0509 39.0518 78.8852 39.0794C78.7241 39.1116 78.5676 39.1255 78.4156 39.1255C78.1993 39.1255 78.0013 39.0886 77.8172 39.0196C77.633 38.9505 77.4765 38.8539 77.343 38.7342C77.2095 38.6145 77.1082 38.4764 77.03 38.3198C76.9563 38.1633 76.9149 37.9976 76.9149 37.8227L76.9103 37.8134Z" fill="#1D9BD7"/>
    <path d="M81.2745 36.8559C81.2699 36.5567 81.2929 36.2621 81.3574 35.9674C81.4172 35.6774 81.5047 35.3966 81.6198 35.1342C81.7348 34.8718 81.8776 34.6232 82.0433 34.4022C82.209 34.1813 82.3978 33.9833 82.6095 33.8176C82.8213 33.6518 83.0469 33.5229 83.2955 33.4309C83.544 33.3388 83.8064 33.2928 84.0827 33.2928C84.3957 33.2928 84.6765 33.3434 84.9159 33.4447C85.1553 33.546 85.3624 33.6933 85.5282 33.8866C85.6939 34.08 85.8228 34.3194 85.9103 34.6002C85.9977 34.881 86.0484 35.1986 86.053 35.5577C86.053 35.8569 86.03 36.1516 85.9701 36.4462C85.9103 36.7408 85.8228 37.017 85.7077 37.2794C85.5926 37.5465 85.4499 37.7858 85.2842 38.0114C85.1185 38.2324 84.9297 38.4303 84.7179 38.5914C84.5062 38.7572 84.2806 38.8861 84.032 38.9782C83.7834 39.0702 83.521 39.1209 83.2402 39.1209C82.9272 39.1209 82.6463 39.0702 82.407 38.9689C82.1676 38.8677 81.965 38.7204 81.7993 38.527C81.6336 38.3337 81.5093 38.0989 81.4218 37.8181C81.3343 37.5372 81.2837 37.2196 81.2791 36.8605L81.2745 36.8559ZM83.4105 38.5178C83.5993 38.5178 83.765 38.4764 83.9169 38.3889C84.0688 38.3014 84.2024 38.1863 84.322 38.0344C84.4417 37.8871 84.543 37.7122 84.6305 37.5142C84.7179 37.3163 84.787 37.1091 84.8422 36.8927C84.8975 36.6764 84.9343 36.4508 84.9619 36.2206C84.985 35.9904 84.9988 35.7741 84.9942 35.5623C84.9896 35.0421 84.8929 34.6324 84.7087 34.3378C84.5246 34.0431 84.2576 33.8958 83.9031 33.8958C83.7144 33.8958 83.5486 33.9419 83.3967 34.0247C83.2448 34.1122 83.1113 34.2273 82.9916 34.3792C82.8719 34.5265 82.7706 34.7014 82.6878 34.8948C82.6003 35.0927 82.5313 35.2999 82.476 35.5163C82.4208 35.7326 82.3793 35.9582 82.3563 36.1838C82.3333 36.414 82.3241 36.6303 82.3287 36.8421C82.3333 37.3669 82.43 37.7766 82.6095 38.0713C82.7891 38.3659 83.0561 38.5132 83.4105 38.5132V38.5178Z" fill="#1D9BD7"/>
    <path d="M87.7884 34.2779L87.3005 33.9879L87.3879 33.5506L88.6033 33.2928L88.838 33.4124L88.746 34.4575C88.8749 34.2963 89.0222 34.1444 89.1787 34.0017C89.3352 33.859 89.4964 33.7347 89.6667 33.6334C89.837 33.5275 90.012 33.4493 90.1961 33.3848C90.3802 33.325 90.5598 33.2928 90.7439 33.2928C90.9004 33.2928 91.0432 33.3158 91.1721 33.3572C91.2963 33.3986 91.4068 33.4677 91.5035 33.5644C91.5956 33.661 91.6738 33.7853 91.7291 33.9419C91.7843 34.0984 91.8212 34.2871 91.8396 34.5173C91.9639 34.347 92.102 34.1859 92.2539 34.0385C92.4058 33.8912 92.5623 33.7623 92.7327 33.6518C92.8984 33.5414 93.0733 33.4539 93.2483 33.3894C93.4278 33.325 93.6073 33.2928 93.7915 33.2928C93.9526 33.2928 94.0999 33.3204 94.238 33.3756C94.3761 33.4309 94.4958 33.5183 94.5971 33.638C94.6984 33.7577 94.7766 33.9096 94.8319 34.0984C94.8871 34.2871 94.9147 34.5127 94.9147 34.7797C94.9147 34.8994 94.9055 35.0283 94.8917 35.171C94.8779 35.3137 94.8595 35.461 94.8365 35.6129C94.8135 35.7649 94.7904 35.9214 94.7628 36.0779C94.7352 36.2344 94.7122 36.3817 94.6892 36.5291C94.6477 36.7869 94.6063 37.0493 94.5649 37.3163C94.5234 37.5787 94.4958 37.8411 94.482 38.0989C94.4774 38.2186 94.482 38.306 94.4958 38.3705C94.5096 38.4349 94.5419 38.4672 94.5879 38.4672C94.6155 38.4672 94.6431 38.4672 94.6754 38.4533C94.7076 38.4441 94.7444 38.4303 94.7858 38.4073C94.8273 38.3843 94.8733 38.3521 94.9286 38.3106C94.9838 38.2692 95.0482 38.214 95.1219 38.1495L95.2738 38.4119C95.2508 38.4487 95.2048 38.504 95.1311 38.5869C95.0574 38.6651 94.97 38.7434 94.8641 38.8262C94.7582 38.9091 94.6339 38.9781 94.5004 39.038C94.3623 39.0978 94.2196 39.1301 94.0677 39.1301C93.8605 39.1301 93.7086 39.0794 93.6027 38.9782C93.4968 38.8769 93.4554 38.7111 93.4646 38.4856C93.4784 38.2416 93.506 37.9746 93.5429 37.6892C93.5843 37.3991 93.6257 37.1091 93.6718 36.8191C93.6948 36.681 93.7178 36.5291 93.7454 36.3679C93.7731 36.2022 93.7961 36.0365 93.8237 35.8615C93.8467 35.6912 93.8697 35.5163 93.8835 35.3459C93.8974 35.1756 93.9066 35.0145 93.9066 34.858C93.9066 34.683 93.8927 34.5403 93.8651 34.4437C93.8375 34.3424 93.8007 34.2687 93.7546 34.2181C93.7086 34.1674 93.6534 34.1398 93.5935 34.126C93.5337 34.1122 93.4692 34.1076 93.4048 34.1076C93.2851 34.1076 93.1608 34.1398 93.0273 34.1997C92.8938 34.2595 92.7557 34.3424 92.6176 34.4482C92.4795 34.5541 92.3414 34.6784 92.2078 34.8211C92.0743 34.9638 91.9454 35.1158 91.8304 35.2815C91.8119 35.4887 91.7935 35.705 91.7659 35.926C91.7383 36.147 91.7107 36.3587 91.6784 36.5521L91.3654 39.038H90.3664L90.6426 36.8559C90.6657 36.7132 90.6887 36.5567 90.7163 36.3864C90.7393 36.216 90.7623 36.0457 90.7807 35.8708C90.7992 35.6958 90.8176 35.5209 90.8268 35.3506C90.836 35.1802 90.8452 35.0145 90.8452 34.858C90.8452 34.6784 90.836 34.5403 90.813 34.4437C90.79 34.3424 90.7577 34.2687 90.7117 34.2181C90.6657 34.1674 90.6104 34.1352 90.546 34.1214C90.4769 34.1076 90.4033 34.103 90.3158 34.103C90.1915 34.103 90.058 34.1352 89.9153 34.1951C89.7726 34.2549 89.6299 34.3378 89.4825 34.4482C89.3352 34.5587 89.1925 34.683 89.0498 34.8304C88.9071 34.9777 88.7736 35.1342 88.6539 35.3045L88.1475 39.0426H87.1624L87.8022 34.3009L87.7884 34.2779Z" fill="#1D9BD7"/>
    <path d="M96.1853 36.8053C96.1853 36.4002 96.2313 36.0365 96.328 35.7096C96.4247 35.3828 96.549 35.0927 96.7055 34.8396C96.862 34.5864 97.0416 34.3654 97.2487 34.1766C97.4559 33.9879 97.6676 33.836 97.8886 33.7163C98.1096 33.5966 98.3306 33.5091 98.5469 33.4493C98.7633 33.3894 98.9705 33.3618 99.1638 33.3618C99.44 33.3618 99.6748 33.3894 99.8681 33.4447C100.061 33.4999 100.223 33.569 100.342 33.661C100.462 33.7531 100.554 33.8498 100.609 33.9603C100.665 34.0708 100.692 34.1859 100.692 34.2963C100.692 34.4621 100.669 34.6186 100.623 34.7659C100.577 34.9086 100.503 35.0421 100.398 35.1664C100.296 35.2907 100.158 35.4058 99.9878 35.5071C99.8175 35.613 99.6103 35.7096 99.371 35.7971C99.6057 35.7971 99.8083 35.8247 99.974 35.8938C100.14 35.9628 100.273 36.0503 100.379 36.1608C100.48 36.2713 100.559 36.4002 100.605 36.5429C100.651 36.6856 100.674 36.8283 100.674 36.9664C100.674 37.2472 100.619 37.5188 100.513 37.7812C100.402 38.039 100.241 38.2692 100.029 38.4672C99.8129 38.6651 99.5459 38.8262 99.219 38.9413C98.8922 39.061 98.5147 39.1163 98.082 39.1163C97.8334 39.1163 97.5986 39.0656 97.3684 38.9597C97.1382 38.8539 96.9403 38.7019 96.7607 38.504C96.5858 38.306 96.4431 38.062 96.3418 37.7766C96.2359 37.4912 96.1853 37.169 96.1853 36.8053ZM97.2257 37.1275C97.2257 37.3117 97.2487 37.4912 97.2948 37.6615C97.3408 37.8319 97.4098 37.9838 97.5019 38.1173C97.594 38.2462 97.7091 38.3521 97.8426 38.4303C97.9807 38.5086 98.1372 38.5454 98.3121 38.5454C98.5009 38.5454 98.6804 38.5132 98.8416 38.4533C99.0027 38.3935 99.1454 38.3014 99.2651 38.1817C99.3848 38.062 99.4768 37.9193 99.5413 37.7536C99.6103 37.5879 99.6426 37.3991 99.6426 37.192C99.6426 37.0539 99.6242 36.9204 99.5919 36.7961C99.5597 36.6672 99.5045 36.5613 99.4262 36.4646C99.3479 36.3725 99.2421 36.2943 99.1132 36.239C98.9843 36.1838 98.8231 36.1562 98.6298 36.1562C98.5884 36.1562 98.5423 36.1562 98.5009 36.1608C98.4549 36.1608 98.4088 36.17 98.3628 36.1746L97.2533 36.3403C97.2441 36.3956 97.2349 36.46 97.2303 36.5291C97.2257 36.5981 97.2211 36.6718 97.2211 36.7454C97.2211 36.8191 97.2211 36.8881 97.2211 36.9526C97.2211 37.0216 97.2211 37.0769 97.2211 37.1275H97.2257ZM98.0405 35.7096C98.2891 35.6682 98.5101 35.6176 98.7034 35.5531C98.8968 35.4933 99.0625 35.415 99.1914 35.3275C99.3249 35.2355 99.4262 35.1296 99.4953 35.0053C99.5643 34.881 99.6011 34.7337 99.6011 34.5679C99.6011 34.3792 99.5459 34.2273 99.4354 34.1168C99.3249 34.0063 99.127 33.9511 98.8508 33.9511C98.7403 33.9511 98.6068 33.9879 98.441 34.0616C98.2753 34.1352 98.1188 34.2503 97.9623 34.4022C97.8058 34.5541 97.6723 34.7475 97.5526 34.9869C97.4329 35.2217 97.3638 35.5025 97.3454 35.8293L98.0451 35.7096H98.0405Z" fill="#1D9BD7"/>
    <path d="M101.641 36.8559C101.636 36.5567 101.659 36.2621 101.723 35.9674C101.783 35.6774 101.871 35.3966 101.986 35.1342C102.101 34.8718 102.244 34.6232 102.409 34.4022C102.575 34.1767 102.764 33.9833 102.976 33.8176C103.187 33.6518 103.413 33.5229 103.662 33.4309C103.91 33.3388 104.173 33.2928 104.449 33.2928C104.762 33.2928 105.043 33.3434 105.282 33.4447C105.521 33.546 105.729 33.6933 105.894 33.8866C106.06 34.08 106.189 34.3194 106.276 34.6002C106.364 34.881 106.414 35.1986 106.419 35.5577C106.419 35.8569 106.396 36.1516 106.336 36.4462C106.276 36.7408 106.189 37.017 106.074 37.2794C105.959 37.5465 105.816 37.7858 105.65 38.0114C105.485 38.2324 105.296 38.4303 105.084 38.5914C104.872 38.7572 104.647 38.8861 104.398 38.9782C104.15 39.0702 103.887 39.1209 103.606 39.1209C103.293 39.1209 103.012 39.0702 102.773 38.9689C102.534 38.8677 102.331 38.7204 102.165 38.527C102 38.3337 101.875 38.0989 101.788 37.8181C101.7 37.5372 101.65 37.2196 101.645 36.8605L101.641 36.8559ZM103.777 38.5178C103.965 38.5178 104.131 38.4764 104.283 38.3889C104.435 38.3014 104.568 38.1863 104.688 38.0344C104.808 37.8871 104.909 37.7122 104.997 37.5142C105.084 37.3163 105.153 37.1091 105.208 36.8927C105.264 36.6764 105.3 36.4508 105.328 36.2206C105.351 35.9904 105.365 35.7741 105.36 35.5623C105.356 35.0421 105.259 34.6324 105.079 34.3378C104.895 34.0431 104.628 33.8958 104.274 33.8958C104.085 33.8958 103.919 33.9419 103.767 34.0247C103.616 34.1122 103.482 34.2273 103.362 34.3792C103.243 34.5265 103.141 34.7014 103.058 34.8948C102.971 35.0927 102.902 35.2999 102.847 35.5163C102.791 35.7326 102.75 35.9582 102.727 36.1838C102.704 36.414 102.695 36.6303 102.699 36.8421C102.704 37.3669 102.801 37.7766 102.98 38.0713C103.16 38.3659 103.427 38.5132 103.781 38.5132L103.777 38.5178Z" fill="#1D9BD7"/>
    <path d="M108.003 41.5792H107.041L108.04 34.1905L107.501 33.9327L107.588 33.5413L108.859 33.2836L109.089 33.4032L109.02 34.0523C109.098 33.9557 109.191 33.859 109.287 33.7669C109.384 33.6749 109.499 33.592 109.623 33.5229C109.748 33.4493 109.876 33.394 110.019 33.348C110.162 33.3066 110.309 33.2836 110.47 33.2836C110.756 33.2836 111.004 33.3388 111.216 33.4447C111.428 33.5506 111.598 33.6979 111.736 33.8866C111.874 34.0754 111.976 34.3009 112.045 34.5633C112.114 34.8257 112.146 35.1112 112.146 35.4196C112.146 35.6774 112.114 35.9444 112.049 36.2252C111.985 36.506 111.893 36.7869 111.773 37.0585C111.653 37.3301 111.501 37.5925 111.322 37.8411C111.142 38.0897 110.935 38.3106 110.7 38.4948C110.466 38.6835 110.208 38.8308 109.922 38.9413C109.637 39.0518 109.329 39.1071 108.997 39.1071C108.891 39.1071 108.785 39.1024 108.67 39.0886C108.56 39.0748 108.449 39.0564 108.339 39.0334L107.989 41.5699L108.003 41.5792ZM108.449 38.3429C108.546 38.4073 108.652 38.4533 108.772 38.4764C108.891 38.4994 109.02 38.5132 109.158 38.5132C109.384 38.5132 109.591 38.4672 109.775 38.3705C109.959 38.2738 110.125 38.1495 110.272 37.993C110.42 37.8365 110.544 37.6523 110.65 37.4498C110.756 37.2472 110.843 37.0309 110.912 36.8053C110.981 36.5797 111.037 36.3541 111.069 36.1286C111.101 35.903 111.119 35.6866 111.119 35.484C111.119 35.0099 111.046 34.6416 110.898 34.3838C110.751 34.126 110.553 33.9971 110.295 33.9971C110.157 33.9971 110.024 34.0201 109.89 34.0754C109.757 34.126 109.632 34.1905 109.517 34.2733C109.402 34.3516 109.292 34.4437 109.195 34.5403C109.098 34.637 109.011 34.7337 108.937 34.8304L108.449 38.3429Z" fill="#1D9BD7"/>
    <path d="M113.384 37.7674C113.384 37.6569 113.389 37.5372 113.398 37.4037C113.407 37.2702 113.421 37.1275 113.44 36.9802C113.458 36.8329 113.476 36.681 113.495 36.5291C113.513 36.3771 113.536 36.2252 113.555 36.0779L113.808 34.2733L113.315 33.9787L113.403 33.5413L114.627 33.2882L114.862 33.4079L114.521 36.1193C114.503 36.2667 114.485 36.4048 114.466 36.5337C114.448 36.6626 114.434 36.7869 114.42 36.9066C114.406 37.0263 114.393 37.1413 114.388 37.2564C114.379 37.3715 114.374 37.4912 114.374 37.6109C114.374 37.7766 114.388 37.9147 114.425 38.0252C114.457 38.1357 114.503 38.2186 114.563 38.2784C114.623 38.3383 114.696 38.3797 114.784 38.4027C114.871 38.4257 114.963 38.4395 115.069 38.4395C115.184 38.4395 115.299 38.4165 115.419 38.3751C115.539 38.329 115.654 38.2738 115.76 38.2002C115.87 38.1265 115.976 38.0436 116.073 37.947C116.17 37.8503 116.262 37.7536 116.34 37.6523L116.911 33.3342H117.891L117.274 38.0805C117.242 38.3291 117.274 38.4533 117.385 38.4533C117.412 38.4533 117.44 38.4533 117.468 38.4395C117.495 38.4303 117.532 38.4165 117.574 38.3889C117.615 38.3659 117.661 38.3291 117.716 38.2876C117.772 38.2462 117.831 38.1909 117.905 38.1265L118.057 38.3935C118.034 38.4303 117.983 38.4856 117.91 38.5684C117.836 38.6467 117.744 38.725 117.633 38.8078C117.523 38.8861 117.399 38.9597 117.261 39.0196C117.122 39.0794 116.98 39.1117 116.828 39.1117C116.602 39.1117 116.441 39.0426 116.349 38.9045C116.257 38.7664 116.234 38.5822 116.285 38.3475V38.3014C116.193 38.4073 116.091 38.5086 115.981 38.6053C115.87 38.7019 115.746 38.7894 115.612 38.8677C115.479 38.9413 115.332 39.0058 115.171 39.0518C115.009 39.0978 114.834 39.1209 114.65 39.1209C114.466 39.1209 114.291 39.0978 114.135 39.0564C113.978 39.0104 113.845 38.9367 113.734 38.8308C113.624 38.725 113.536 38.5869 113.476 38.4165C113.417 38.2416 113.384 38.0298 113.384 37.772V37.7674Z" fill="#1D9BD7"/>
    <path d="M119.838 34.2779L119.35 33.9879L119.438 33.5506L120.653 33.2928L120.888 33.4124L120.796 34.4575C120.925 34.2963 121.072 34.1444 121.229 34.0017C121.385 33.859 121.546 33.7347 121.717 33.6334C121.887 33.5275 122.062 33.4493 122.246 33.3848C122.43 33.325 122.61 33.2928 122.794 33.2928C122.95 33.2928 123.093 33.3158 123.222 33.3572C123.346 33.3986 123.457 33.4677 123.553 33.5644C123.646 33.661 123.724 33.7853 123.779 33.9419C123.834 34.0984 123.871 34.2871 123.889 34.5173C124.014 34.347 124.152 34.1859 124.304 34.0385C124.456 33.8912 124.612 33.7623 124.783 33.6518C124.948 33.5414 125.123 33.4539 125.298 33.3894C125.478 33.325 125.657 33.2928 125.841 33.2928C126.003 33.2928 126.15 33.3204 126.288 33.3756C126.426 33.4309 126.546 33.5183 126.647 33.638C126.748 33.7577 126.827 33.9096 126.882 34.0984C126.937 34.2871 126.965 34.5127 126.965 34.7797C126.965 34.8994 126.955 35.0283 126.942 35.171C126.928 35.3137 126.909 35.461 126.886 35.6129C126.863 35.7649 126.84 35.9214 126.813 36.0779C126.785 36.2344 126.762 36.3817 126.739 36.5291C126.698 36.7869 126.656 37.0493 126.615 37.3163C126.573 37.5787 126.546 37.8411 126.532 38.0989C126.527 38.2186 126.532 38.306 126.546 38.3705C126.56 38.4349 126.592 38.4672 126.638 38.4672C126.665 38.4672 126.693 38.4672 126.725 38.4533C126.758 38.4441 126.794 38.4303 126.836 38.4073C126.877 38.3843 126.923 38.3521 126.978 38.3106C127.034 38.2692 127.098 38.214 127.172 38.1495L127.324 38.4119C127.301 38.4487 127.255 38.504 127.181 38.5869C127.107 38.6651 127.02 38.7434 126.914 38.8262C126.808 38.9091 126.684 38.9781 126.55 39.038C126.412 39.0978 126.27 39.1301 126.118 39.1301C125.91 39.1301 125.759 39.0794 125.653 38.9782C125.547 38.8769 125.505 38.7111 125.515 38.4856C125.528 38.2416 125.556 37.9746 125.593 37.6892C125.634 37.3991 125.676 37.1091 125.722 36.8191C125.745 36.681 125.768 36.5291 125.795 36.3679C125.823 36.2022 125.846 36.0365 125.874 35.8615C125.897 35.6912 125.92 35.5163 125.933 35.3459C125.947 35.1756 125.956 35.0145 125.956 34.858C125.956 34.683 125.943 34.5403 125.915 34.4437C125.887 34.3424 125.851 34.2687 125.805 34.2181C125.759 34.1674 125.703 34.1398 125.643 34.126C125.584 34.1122 125.519 34.1076 125.455 34.1076C125.335 34.1076 125.211 34.1398 125.077 34.1997C124.944 34.2595 124.806 34.3424 124.667 34.4482C124.529 34.5541 124.391 34.6784 124.258 34.8211C124.124 34.9638 123.995 35.1158 123.88 35.2815C123.862 35.4887 123.843 35.705 123.816 35.926C123.788 36.147 123.761 36.3587 123.728 36.5521L123.415 39.038H122.416L122.693 36.8559C122.716 36.7132 122.739 36.5567 122.766 36.3864C122.789 36.216 122.812 36.0457 122.831 35.8708C122.849 35.6958 122.868 35.5209 122.877 35.3506C122.886 35.1802 122.895 35.0145 122.895 34.858C122.895 34.6784 122.886 34.5403 122.863 34.4437C122.84 34.3424 122.808 34.2687 122.762 34.2181C122.716 34.1674 122.66 34.1352 122.596 34.1214C122.527 34.1076 122.453 34.103 122.366 34.103C122.241 34.103 122.108 34.1352 121.965 34.1951C121.822 34.2549 121.68 34.3378 121.532 34.4482C121.385 34.5587 121.242 34.683 121.1 34.8304C120.957 34.9777 120.824 35.1342 120.704 35.3045L120.197 39.0426H119.212L119.852 34.3009L119.838 34.2779Z" fill="#1D9BD7"/>
    <path d="M128.245 36.902C128.249 36.5889 128.291 36.2851 128.364 35.9858C128.438 35.6866 128.535 35.4058 128.659 35.1342C128.783 34.8672 128.935 34.6186 129.105 34.393C129.276 34.1674 129.474 33.9741 129.685 33.8084C129.897 33.6426 130.127 33.5183 130.376 33.4263C130.625 33.3342 130.882 33.2882 131.159 33.2882C131.398 33.2882 131.605 33.3204 131.78 33.3802C131.955 33.4447 132.102 33.5275 132.217 33.6426C132.332 33.7531 132.42 33.8866 132.48 34.0339C132.535 34.1812 132.567 34.347 132.567 34.5173C132.567 34.7751 132.507 35.0053 132.392 35.2124C132.277 35.4196 132.125 35.6038 131.937 35.7695C131.748 35.9352 131.531 36.0779 131.292 36.1976C131.053 36.3173 130.813 36.4186 130.569 36.4968C130.33 36.5751 130.095 36.6349 129.874 36.681C129.649 36.7224 129.46 36.7454 129.303 36.75C129.294 36.8559 129.29 36.971 129.299 37.0953C129.303 37.2196 129.322 37.3439 129.354 37.4682C129.382 37.5925 129.423 37.7122 129.478 37.8273C129.529 37.9424 129.598 38.0436 129.681 38.1311C129.764 38.2186 129.86 38.2922 129.971 38.3429C130.081 38.3935 130.21 38.4211 130.362 38.4211C130.615 38.4211 130.887 38.3659 131.177 38.2554C131.467 38.1449 131.748 37.9562 132.029 37.6984L132.259 38.1127C132.19 38.2094 132.088 38.3152 131.96 38.4349C131.831 38.55 131.679 38.6559 131.504 38.7618C131.329 38.8677 131.131 38.9505 130.915 39.015C130.698 39.084 130.468 39.1163 130.229 39.1163C129.879 39.1163 129.575 39.0518 129.322 38.9275C129.069 38.8032 128.861 38.6375 128.7 38.4303C128.539 38.2232 128.424 37.9884 128.35 37.7214C128.277 37.4544 128.245 37.1828 128.249 36.8973L128.245 36.902ZM129.326 36.2114C129.46 36.2068 129.603 36.1838 129.764 36.1516C129.925 36.1193 130.086 36.0687 130.247 36.0043C130.408 35.9398 130.569 35.8615 130.726 35.7741C130.882 35.682 131.02 35.5807 131.14 35.4656C131.26 35.3506 131.357 35.2217 131.43 35.0743C131.504 34.9316 131.541 34.7751 131.541 34.6094C131.541 34.3516 131.481 34.1674 131.366 34.0523C131.251 33.9373 131.103 33.8774 130.924 33.8774C130.758 33.8774 130.602 33.9142 130.468 33.9925C130.33 34.0708 130.206 34.172 130.091 34.2963C129.975 34.4206 129.879 34.568 129.791 34.7337C129.704 34.8994 129.63 35.0651 129.566 35.2401C129.501 35.415 129.451 35.5853 129.414 35.7557C129.377 35.926 129.349 36.0779 129.331 36.216L129.326 36.2114Z" fill="#1D9BD7"/>
    <path d="M133.18 39.0978C133.152 39.0978 133.111 39.0978 133.064 39.084C133.018 39.0748 132.972 39.0656 132.926 39.0564C132.88 39.0426 132.844 39.0334 132.807 39.015C132.77 39.0012 132.751 38.9874 132.747 38.9782L132.995 37.8779C132.995 37.8779 133.041 37.9009 133.097 37.9193C133.152 37.9377 133.216 37.9562 133.285 37.9746C133.355 37.993 133.419 38.0114 133.483 38.0252C133.548 38.039 133.594 38.0436 133.622 38.0436C133.695 38.0436 133.773 37.9884 133.847 37.8825C133.912 37.795 133.976 37.6707 134.04 37.5142C134.1 37.3577 134.165 37.1782 134.225 36.9802C134.284 36.7777 134.344 36.5613 134.4 36.3265C134.455 36.0917 134.505 35.8477 134.556 35.5945C134.602 35.3414 134.648 35.0835 134.69 34.8257C134.731 34.5679 134.768 34.3148 134.795 34.0662L133.916 33.9235L133.981 33.4217H138.004L137.452 38.0897C137.424 38.3383 137.461 38.4626 137.562 38.4626C137.604 38.4626 137.659 38.4488 137.723 38.4165C137.788 38.3889 137.875 38.3244 137.99 38.2324L138.142 38.4948C138.124 38.527 138.078 38.5777 137.999 38.6467C137.926 38.7158 137.834 38.7848 137.728 38.8539C137.622 38.9229 137.498 38.9828 137.364 39.038C137.231 39.0886 137.097 39.1163 136.959 39.1163C136.858 39.1163 136.766 39.1024 136.683 39.0794C136.6 39.0564 136.531 39.015 136.476 38.9643C136.42 38.9137 136.379 38.8447 136.356 38.7572C136.333 38.6697 136.328 38.573 136.342 38.4533L136.908 34.0524H135.352C135.297 34.5081 135.233 34.9639 135.154 35.4196C135.081 35.8754 134.998 36.2989 134.911 36.6948C134.823 37.0861 134.731 37.4314 134.639 37.7306C134.547 38.0298 134.455 38.2462 134.367 38.3843C134.303 38.481 134.234 38.5777 134.165 38.6605C134.096 38.7434 134.017 38.8216 133.925 38.8861C133.833 38.9505 133.732 39.0012 133.612 39.038C133.493 39.0748 133.35 39.0932 133.184 39.0932L133.18 39.0978Z" fill="#1D9BD7"/>
    <path d="M140.803 39.1347C140.518 39.1347 140.264 39.084 140.043 38.9828C139.823 38.8815 139.643 38.725 139.509 38.5178C139.376 38.3106 139.293 38.0482 139.261 37.7306C139.224 37.4129 139.252 37.0447 139.339 36.6211L139.809 34.2779L139.325 33.9879L139.413 33.5506L140.633 33.2928L140.9 33.4171L140.407 36.1746C140.458 36.1055 140.536 36.0227 140.637 35.926C140.739 35.8293 140.858 35.7373 141.001 35.6498C141.144 35.5623 141.305 35.4841 141.484 35.4242C141.664 35.3598 141.862 35.3321 142.069 35.3321C142.488 35.3321 142.792 35.461 142.985 35.7142C143.183 35.972 143.28 36.3357 143.28 36.8053C143.28 36.971 143.252 37.1459 143.197 37.3255C143.142 37.505 143.059 37.6846 142.958 37.8549C142.852 38.0252 142.727 38.1909 142.58 38.3429C142.433 38.4948 142.267 38.6329 142.083 38.748C141.899 38.8631 141.701 38.9551 141.484 39.0242C141.268 39.0932 141.042 39.1301 140.808 39.1301L140.803 39.1347ZM140.895 38.5776C141.098 38.5776 141.286 38.527 141.452 38.4303C141.618 38.3337 141.761 38.2048 141.88 38.0528C142 37.8963 142.087 37.726 142.152 37.5372C142.216 37.3485 142.249 37.1598 142.249 36.9756C142.249 36.8559 142.249 36.7408 142.235 36.6303C142.226 36.5153 142.198 36.414 142.157 36.3265C142.115 36.2344 142.046 36.1654 141.959 36.1055C141.866 36.0503 141.742 36.0227 141.581 36.0227C141.475 36.0227 141.36 36.0457 141.236 36.0963C141.112 36.1424 140.987 36.2114 140.863 36.2989C140.739 36.3864 140.624 36.4968 140.518 36.6211C140.407 36.7454 140.32 36.8881 140.251 37.0447L140.237 37.1367C140.2 37.3393 140.186 37.528 140.2 37.7076C140.214 37.8825 140.246 38.0344 140.301 38.1633C140.361 38.2922 140.439 38.3935 140.536 38.4672C140.637 38.5408 140.757 38.5776 140.895 38.5776Z" fill="#1D9BD7"/>
    <path d="M144.937 34.2779L144.449 33.9879L144.537 33.5506L145.756 33.2928L146.028 33.4171L145.701 35.8339H148.15L148.45 33.4263H149.412L148.868 38.0943C148.841 38.3429 148.878 38.4672 148.979 38.4672C149.02 38.4672 149.076 38.4533 149.14 38.4211C149.205 38.3935 149.292 38.329 149.407 38.237L149.559 38.4994C149.541 38.5316 149.495 38.5822 149.43 38.6513C149.361 38.7203 149.278 38.7894 149.177 38.8585C149.076 38.9275 148.961 38.9874 148.832 39.0426C148.703 39.0932 148.569 39.1209 148.431 39.1209C148.33 39.1209 148.238 39.107 148.155 39.084C148.072 39.061 148.003 39.0196 147.948 38.9689C147.893 38.9183 147.851 38.8492 147.823 38.7664C147.796 38.6835 147.791 38.5822 147.81 38.4625L148.086 36.414H145.632L145.287 39.015H144.302L144.942 34.2733L144.937 34.2779Z" fill="#1D9BD7"/>
    <path d="M150.48 36.8559C150.475 36.5567 150.498 36.2621 150.563 35.9674C150.622 35.6774 150.71 35.3966 150.825 35.1342C150.94 34.8718 151.083 34.6232 151.248 34.4022C151.414 34.1813 151.603 33.9833 151.815 33.8176C152.026 33.6518 152.252 33.5229 152.501 33.4309C152.745 33.3388 153.012 33.2928 153.288 33.2928C153.601 33.2928 153.882 33.3434 154.121 33.4447C154.36 33.546 154.568 33.6933 154.733 33.8866C154.899 34.08 155.028 34.3194 155.115 34.6002C155.203 34.881 155.254 35.1986 155.258 35.5577C155.258 35.8569 155.235 36.1516 155.175 36.4462C155.115 36.7408 155.028 37.017 154.913 37.2794C154.798 37.5465 154.655 37.7858 154.489 38.0114C154.324 38.2324 154.135 38.4303 153.923 38.5914C153.711 38.7572 153.486 38.8861 153.237 38.9782C152.989 39.0702 152.726 39.1209 152.445 39.1209C152.128 39.1209 151.852 39.0702 151.612 38.9689C151.373 38.8677 151.166 38.7204 151.004 38.527C150.839 38.3337 150.714 38.0989 150.627 37.8181C150.54 37.5372 150.489 37.2196 150.484 36.8605L150.48 36.8559ZM152.616 38.5178C152.804 38.5178 152.97 38.4764 153.122 38.3889C153.274 38.3014 153.408 38.1863 153.527 38.0344C153.647 37.8871 153.748 37.7122 153.836 37.5142C153.923 37.3163 153.992 37.1091 154.047 36.8927C154.103 36.6764 154.14 36.4508 154.167 36.2206C154.19 35.9904 154.204 35.7741 154.199 35.5623C154.19 35.0421 154.098 34.6324 153.914 34.3378C153.73 34.0431 153.463 33.8958 153.108 33.8958C152.92 33.8958 152.754 33.9419 152.602 34.0247C152.45 34.1122 152.317 34.2273 152.197 34.3792C152.077 34.5265 151.976 34.7014 151.893 34.8948C151.81 35.0927 151.736 35.2999 151.681 35.5163C151.626 35.7326 151.585 35.9582 151.562 36.1838C151.539 36.414 151.529 36.6303 151.534 36.8421C151.539 37.3669 151.635 37.7766 151.815 38.0713C151.994 38.3659 152.261 38.5132 152.616 38.5132V38.5178Z" fill="#1D9BD7"/>
    <path d="M157.841 39.1209C157.56 39.1209 157.311 39.0702 157.095 38.9689C156.879 38.8677 156.69 38.725 156.543 38.5316C156.391 38.3429 156.276 38.1081 156.197 37.8365C156.119 37.5649 156.078 37.2518 156.078 36.8973C156.078 36.6441 156.105 36.3817 156.16 36.1055C156.216 35.8293 156.299 35.5577 156.409 35.2907C156.52 35.0237 156.653 34.7705 156.819 34.5265C156.98 34.2871 157.169 34.0754 157.39 33.8912C157.606 33.7071 157.85 33.5644 158.117 33.4539C158.384 33.3434 158.679 33.2928 158.996 33.2928C159.084 33.2928 159.18 33.2974 159.277 33.3112C159.374 33.3204 159.475 33.3388 159.567 33.3572C159.664 33.3756 159.756 33.4032 159.843 33.4309C159.935 33.4585 160.014 33.4953 160.083 33.5275L159.793 34.5081C159.793 34.5081 159.756 34.4759 159.737 34.4621C159.714 34.4482 159.696 34.4344 159.682 34.4206C159.54 34.3055 159.392 34.2089 159.236 34.1306C159.079 34.0523 158.923 34.0109 158.766 34.0109C158.522 34.0109 158.301 34.0708 158.103 34.1905C157.905 34.3101 157.73 34.4851 157.588 34.7153C157.445 34.9454 157.334 35.2309 157.256 35.5761C157.178 35.9168 157.141 36.3081 157.141 36.75C157.141 37.0447 157.164 37.2933 157.215 37.505C157.261 37.7168 157.33 37.8871 157.417 38.0252C157.505 38.1633 157.611 38.26 157.735 38.3244C157.859 38.3889 157.997 38.4211 158.145 38.4211C158.264 38.4211 158.379 38.4119 158.481 38.3889C158.582 38.3659 158.688 38.3337 158.785 38.2876C158.886 38.2416 158.987 38.1817 159.098 38.1127C159.208 38.0436 159.328 37.9562 159.461 37.8595L159.659 38.2646C159.599 38.3383 159.516 38.4211 159.406 38.5178C159.296 38.6145 159.167 38.7065 159.015 38.794C158.863 38.8815 158.688 38.9597 158.495 39.0196C158.301 39.0794 158.085 39.1117 157.85 39.1117L157.841 39.1209Z" fill="#1D9BD7"/>
    <path d="M161.339 34.2779L160.851 33.9879L160.939 33.5506L162.154 33.2928L162.389 33.4124L162.297 34.4575C162.43 34.2963 162.573 34.1444 162.73 34.0017C162.886 33.859 163.047 33.7347 163.218 33.6334C163.388 33.5275 163.563 33.4493 163.747 33.3848C163.927 33.325 164.111 33.2928 164.295 33.2928C164.451 33.2928 164.594 33.3158 164.718 33.3572C164.847 33.3986 164.953 33.4677 165.05 33.5644C165.142 33.661 165.22 33.7853 165.275 33.9419C165.331 34.0984 165.367 34.2871 165.386 34.5173C165.51 34.347 165.648 34.1859 165.8 34.0385C165.952 33.8912 166.109 33.7623 166.279 33.6518C166.445 33.5414 166.62 33.4539 166.795 33.3894C166.969 33.325 167.154 33.2928 167.338 33.2928C167.499 33.2928 167.646 33.3204 167.784 33.3756C167.922 33.4309 168.042 33.5183 168.143 33.638C168.245 33.7577 168.323 33.9096 168.378 34.0984C168.433 34.2871 168.461 34.5127 168.461 34.7797C168.461 34.8994 168.452 35.0283 168.438 35.171C168.424 35.3137 168.406 35.461 168.383 35.6129C168.36 35.7649 168.337 35.9214 168.309 36.0779C168.281 36.2344 168.258 36.3817 168.235 36.5291C168.194 36.7869 168.153 37.0493 168.111 37.3163C168.07 37.5787 168.042 37.8411 168.028 38.0989C168.024 38.2186 168.028 38.306 168.042 38.3705C168.056 38.4349 168.088 38.4672 168.134 38.4672C168.162 38.4672 168.189 38.4672 168.222 38.4533C168.254 38.4441 168.291 38.4303 168.332 38.4073C168.374 38.3843 168.42 38.3521 168.475 38.3106C168.53 38.2692 168.595 38.214 168.668 38.1495L168.82 38.4119C168.797 38.4487 168.751 38.504 168.677 38.5869C168.604 38.6651 168.516 38.7434 168.41 38.8262C168.304 38.9091 168.18 38.9781 168.047 39.038C167.909 39.0978 167.766 39.1301 167.614 39.1301C167.407 39.1301 167.255 39.0794 167.149 38.9782C167.043 38.8769 167.002 38.7111 167.011 38.4856C167.025 38.2416 167.052 37.9746 167.089 37.6892C167.131 37.3991 167.172 37.1091 167.218 36.8191C167.241 36.681 167.264 36.5291 167.292 36.3679C167.319 36.2022 167.342 36.0365 167.37 35.8615C167.393 35.6912 167.416 35.5163 167.43 35.3459C167.448 35.1756 167.453 35.0145 167.453 34.858C167.453 34.683 167.439 34.5403 167.411 34.4437C167.384 34.3424 167.347 34.2687 167.301 34.2181C167.255 34.1674 167.2 34.1398 167.14 34.126C167.08 34.1122 167.016 34.1076 166.951 34.1076C166.831 34.1076 166.707 34.1398 166.574 34.1997C166.44 34.2595 166.302 34.3424 166.164 34.4482C166.026 34.5541 165.888 34.6784 165.754 34.8211C165.621 34.9638 165.492 35.1158 165.377 35.2815C165.358 35.4887 165.34 35.705 165.308 35.926C165.28 36.147 165.252 36.3587 165.22 36.5521L164.902 39.038H163.904L164.18 36.8559C164.203 36.7132 164.226 36.5567 164.253 36.3864C164.276 36.216 164.299 36.0457 164.318 35.8708C164.336 35.6958 164.355 35.5209 164.364 35.3506C164.373 35.1802 164.382 35.0145 164.382 34.858C164.382 34.6784 164.368 34.5403 164.345 34.4437C164.322 34.3424 164.29 34.2687 164.244 34.2181C164.198 34.1674 164.143 34.1352 164.078 34.1214C164.009 34.1076 163.936 34.103 163.848 34.103C163.724 34.103 163.59 34.1352 163.448 34.1951C163.305 34.2549 163.162 34.3378 163.015 34.4482C162.868 34.5587 162.725 34.683 162.582 34.8304C162.44 34.9777 162.306 35.1342 162.186 35.3045L161.68 39.0426H160.695L161.335 34.3009L161.339 34.2779Z" fill="#1D9BD7"/>
    <path d="M171.504 39.1347C171.219 39.1347 170.966 39.084 170.745 38.9828C170.524 38.8815 170.344 38.725 170.211 38.5178C170.077 38.3106 169.994 38.0482 169.962 37.7306C169.925 37.4129 169.953 37.0447 170.04 36.6211L170.51 34.2779L170.027 33.9879L170.114 33.5506L171.334 33.2928L171.601 33.4171L171.108 36.1746C171.159 36.1055 171.237 36.0227 171.339 35.926C171.44 35.8293 171.559 35.7373 171.702 35.6498C171.845 35.5623 172.006 35.4841 172.186 35.4242C172.365 35.3598 172.563 35.3321 172.77 35.3321C173.189 35.3321 173.493 35.461 173.686 35.7142C173.884 35.972 173.981 36.3357 173.981 36.8053C173.981 36.971 173.953 37.1459 173.898 37.3255C173.843 37.505 173.76 37.6846 173.659 37.8549C173.553 38.0252 173.429 38.1909 173.281 38.3429C173.134 38.4948 172.968 38.6329 172.784 38.748C172.6 38.8631 172.402 38.9551 172.186 39.0242C171.969 39.0932 171.744 39.1301 171.509 39.1301L171.504 39.1347ZM171.596 38.5776C171.799 38.5776 171.988 38.527 172.153 38.4303C172.319 38.3337 172.462 38.2048 172.581 38.0528C172.701 37.8963 172.789 37.726 172.853 37.5372C172.918 37.3485 172.95 37.1598 172.95 36.9756C172.95 36.8559 172.95 36.7408 172.936 36.6303C172.927 36.5153 172.899 36.414 172.858 36.3265C172.816 36.2344 172.747 36.1654 172.66 36.1055C172.568 36.0503 172.443 36.0227 172.282 36.0227C172.176 36.0227 172.061 36.0457 171.937 36.0963C171.813 36.1424 171.688 36.2114 171.564 36.2989C171.44 36.3864 171.325 36.4968 171.219 36.6211C171.108 36.7454 171.021 36.8881 170.952 37.0447L170.938 37.1367C170.901 37.3393 170.887 37.528 170.901 37.7076C170.915 37.8825 170.947 38.0344 171.002 38.1633C171.062 38.2922 171.141 38.3935 171.237 38.4672C171.339 38.5408 171.458 38.5776 171.596 38.5776Z" fill="#1D9BD7"/>
    <path fill-rule="evenodd" clip-rule="evenodd" d="M34.2676 6.73487C32.3341 4.73233 29.7331 3.42032 26.8605 3.19474C27.4728 3.26379 28.2646 3.76098 29.0334 4.47453C30.9438 6.2515 29.1347 9.42334 26.6303 8.69598C25.705 8.42897 24.6416 8.34612 23.4677 8.50724C19.0114 9.12412 13.6161 14.7727 16.1849 20.6146C21.0002 31.5572 37.5868 28.0677 37.7111 15.431C37.7433 12.0336 36.4175 8.95378 34.2722 6.73027L34.2676 6.73487Z" fill="#FDBA12"/>
    <path fill-rule="evenodd" clip-rule="evenodd" d="M19.2693 13.6172C19.2693 14.6161 20.0795 15.4218 21.0739 15.4218C22.0682 15.4218 22.8785 14.6115 22.8785 13.6172C22.8785 12.6228 22.0682 11.8126 21.0739 11.8126C20.0795 11.8126 19.2693 12.6228 19.2693 13.6172Z" fill="white"/>
    <path d="M19.2693 16.5911C19.5973 16.5911 19.8631 16.3252 19.8631 15.9972C19.8631 15.6692 19.5973 15.4034 19.2693 15.4034C18.9413 15.4034 18.6754 15.6692 18.6754 15.9972C18.6754 16.3252 18.9413 16.5911 19.2693 16.5911Z" fill="white"/>
    <path fill-rule="evenodd" clip-rule="evenodd" d="M25.1295 25.1813C29.5213 26.7327 35.1653 21.4064 34.8246 17.8018C33.798 15.5093 32.1637 24.4079 25.1295 25.1813Z" fill="white"/>
</svg>
