<svg width="175" height="34" viewBox="0 0 175 34" fill="none" xmlns="http://www.w3.org/2000/svg">
    <path fill-rule="evenodd" clip-rule="evenodd" d="M0 10.5416C1.59913 4.49269 7.23083 0.529636 13.6273 0.0429451C18.1466 -0.304691 23.2221 1.43349 26.8375 6.16134C29.7576 9.91581 30.731 14.6437 30.2443 22.8479C29.9662 27.2281 30.1748 31.7474 32.4692 32.7207C29.4795 33.6941 25.7946 31.8169 23.9174 28.6882C21.9011 31.4692 17.938 33.2074 13.6969 33.4855C7.09178 33.4855 2.08582 29.453 0.834327 23.8213C0.764799 23.4736 0.695272 23.1955 0.625745 22.8479C0.695272 23.126 0.834327 23.4041 0.973381 23.6822C6.18792 35.8495 24.6822 31.9559 24.8212 17.981C24.8907 10.8197 19.5371 4.97938 12.793 4.42316C12.1673 4.35363 11.472 4.35363 10.8462 4.35363C8.34327 4.49269 3.33731 5.32701 0 10.5416Z" fill="white"/>
    <path fill-rule="evenodd" clip-rule="evenodd" d="M0.973558 22.9174C0.834503 22.6393 0.764976 22.3612 0.695449 22.0831C-0.208405 15.8256 4.03275 10.6806 8.7606 10.0549C13.6275 9.35959 16.6172 12.6274 16.4086 16.1037C14.7399 13.8789 12.0284 13.4617 10.1511 14.2265C8.06533 15.1303 7.02242 17.4247 7.16148 19.1629C7.43959 22.2221 10.0816 24.3079 13.558 24.0994C19.5373 23.7517 21.8317 17.981 21.345 13.3922C20.7193 8.38621 16.9648 4.90985 12.376 4.42316C18.8421 4.90985 23.9871 10.5416 23.9175 17.4247C23.6394 30.774 5.97952 34.5284 0.973558 22.9174Z" fill="white"/>
    <path d="M83.5716 15.1999C83.5716 14.5741 83.5021 14.2265 83.363 14.0179C83.224 13.8789 83.0154 13.7398 82.5982 13.7398C82.1116 13.7398 81.6944 13.8093 81.4163 14.0179C81.1382 14.2265 81.0686 14.5046 81.0686 14.8522C81.0686 15.2694 81.2077 15.617 81.5553 15.9647C81.903 16.3123 82.2506 16.5904 82.7373 16.7295L83.5021 17.0076V15.1999H83.5716ZM76.897 14.8522C76.897 14.2265 77.1056 13.7398 77.5228 13.3922C77.9399 13.0445 78.4961 12.7664 79.1219 12.6274C79.7476 12.4883 80.4429 12.4188 81.1382 12.4188H88.6471V13.0445C88.2995 13.0445 88.0214 13.1141 87.8823 13.3922C87.7433 13.6007 87.6042 13.8789 87.6042 14.157C87.5347 14.4351 87.5347 14.8522 87.5347 15.4085V20.9011C87.5347 21.6659 87.6042 22.2916 87.7433 22.6393C87.8823 23.0564 88.1604 23.1955 88.7166 23.1955V23.8212H82.7373V23.126C83.1545 23.126 83.4326 22.9869 83.5021 22.7088C83.6412 22.4307 83.7107 22.0135 83.7107 21.4573V20.9011V18.4676L83.4326 18.3981C82.5982 19.5801 81.9725 20.762 81.5553 21.8745C81.4163 22.1526 81.3468 22.4307 81.3468 22.7088C81.3468 23.126 81.5553 23.3346 82.042 23.3346V23.9603H75.8541V23.3346C76.0627 23.3346 76.2713 23.126 76.5494 22.7088C76.8275 22.2916 77.1751 21.6659 77.5923 20.9011C78.218 19.6496 78.9828 18.5372 79.8172 17.5638C79.2609 17.4247 78.7047 17.2162 78.2876 16.9381C77.8704 16.7295 77.5228 16.4514 77.3142 16.1037C77.0361 15.6866 76.897 15.2694 76.897 14.8522ZM63.6868 14.9218C63.6868 13.6703 63.3392 13.0445 62.5744 13.0445V12.4883H68.6233V13.0445C68.2756 13.0445 67.9975 13.1836 67.8585 13.5312C67.7194 13.8093 67.6499 14.296 67.6499 14.9218V17.8419L70.431 14.9218C70.431 14.296 70.3615 13.8093 70.2224 13.5312C70.0834 13.2531 69.8052 13.0445 69.4576 13.0445V12.4883H75.4369V13.0445C74.6721 13.0445 74.3245 13.6703 74.3245 14.9218V21.4573C74.3245 22.7088 74.6721 23.3346 75.4369 23.3346V23.8908H69.4576V23.3346C69.8052 23.3346 70.0834 23.1955 70.2224 22.8479C70.3615 22.5698 70.431 22.0831 70.431 21.4573V16.8685L67.6499 19.7887V21.4573C67.6499 22.0831 67.7194 22.5698 67.8585 22.8479C67.9975 23.126 68.2756 23.3346 68.6233 23.3346V23.8908H62.5744V23.3346C63.3392 23.3346 63.6868 22.7088 63.6868 21.4573V14.9218ZM58.7504 17.2162C59.3762 17.3552 59.9324 17.5638 60.4886 17.8419C60.9753 18.12 61.3924 18.4677 61.6706 18.8848C61.9487 19.302 62.0877 19.7887 62.0877 20.3449C62.0877 21.4573 61.601 22.3612 60.5581 23.0564C59.5152 23.7517 57.9856 24.0298 56.0389 24.0298C55.7607 24.0298 55.3436 24.0298 54.7178 23.9603C54.0921 23.8908 53.6054 23.8908 53.3273 23.8908C52.9101 23.8908 52.493 23.9603 52.1453 24.0298L51.8672 24.0994L51.1024 20.4144L51.5196 20.2754L51.5891 20.4144C51.8672 20.9706 52.493 21.4573 53.2578 21.8745C54.0921 22.2916 54.8569 22.5002 55.6217 22.5002C56.317 22.5002 56.9427 22.2916 57.2903 21.8745C57.7075 21.4573 57.9161 20.9011 57.9161 20.2058C57.9161 19.7191 57.777 19.302 57.5685 19.0239C57.3599 18.6762 57.0122 18.4676 56.456 18.2591C55.9693 18.0505 55.2741 17.981 54.4397 17.981H54.2311V16.7295H54.4397C55.0655 16.7295 55.5522 16.6599 55.8998 16.5209C56.2474 16.3818 56.456 16.1733 56.5951 15.9647C56.7341 15.6866 56.8037 15.3389 56.8037 14.9218C56.8037 14.5046 56.6646 14.2265 56.3865 13.9484C56.1084 13.6703 55.8303 13.5312 55.4131 13.5312C54.7178 13.5312 54.0226 13.7398 53.4664 14.157C52.9101 14.5741 52.3539 15.1303 51.9367 15.8951L51.8672 16.0342L51.311 15.8951L52.7711 11.7235L52.9797 12.0711C53.0492 12.2102 53.1882 12.2797 53.3968 12.2797C53.4664 12.2797 53.6054 12.2797 53.8835 12.2102C54.0921 12.2102 54.4397 12.1407 54.7874 12.1407C55.135 12.1407 55.4131 12.0711 55.7607 12.0711C56.6646 12.0711 57.4989 12.1407 58.1247 12.2102C58.8199 12.3493 59.3066 12.4883 59.7238 12.6969C60.141 12.9055 60.4191 13.1836 60.6276 13.5312C60.8362 13.8789 60.9058 14.2265 60.9058 14.7132C60.9058 15.2694 60.6972 15.7561 60.2105 16.1733C59.8629 16.799 59.3762 17.0771 58.7504 17.2162ZM44.1497 18.2591C43.8021 18.4676 43.524 18.8153 43.2459 19.2324C42.9677 19.6496 42.8982 20.0668 42.8982 20.4839C42.8982 20.8316 42.9677 21.1792 43.1763 21.4573C43.3849 21.7354 43.663 21.8745 44.0106 21.8745C44.4973 21.8745 44.9145 21.6659 45.1926 21.1792C45.4707 20.6925 45.6793 20.1363 45.7488 19.5106C45.8184 18.8848 45.8879 18.2591 45.8879 17.6333C45.1231 17.7029 44.5669 17.981 44.1497 18.2591ZM45.8879 16.1037C45.8879 15.6866 45.8879 15.3389 45.8184 15.1303C45.7488 14.9218 45.6793 14.7132 45.6098 14.5741C45.2621 14.157 44.7754 13.9484 44.0106 13.9484C43.1763 13.9484 42.4811 14.2265 41.7858 14.7132C41.16 15.1999 40.6733 15.8951 40.3257 16.7295L39.9781 16.6599L40.3952 12.4883C40.5343 12.6274 40.6733 12.7664 40.7429 12.8359C40.8124 12.9055 40.9515 12.9055 41.0905 12.9055C41.2991 12.9055 41.5772 12.8359 41.9248 12.7664C42.6896 12.5578 43.3154 12.4188 43.8716 12.2797C44.4278 12.1407 45.0536 12.1407 45.6793 12.1407C46.305 12.1407 46.8613 12.2102 47.4175 12.2797C47.9737 12.4188 48.3909 12.6274 48.808 12.9055C49.0861 13.1836 49.2947 13.4617 49.5033 13.8789C49.6424 14.296 49.7119 14.6437 49.7814 15.0608C49.7814 15.478 49.8509 15.8951 49.8509 16.5209V20.762V21.3183C49.8509 21.944 49.9205 22.3612 50.0595 22.7088C50.1986 23.0564 50.4767 23.265 50.9634 23.3346V23.8908H46.6527C46.305 23.5431 46.0965 22.9869 45.9574 22.3612C45.6793 22.7783 45.4012 23.126 44.9145 23.4041C44.4973 23.6822 44.0106 23.8908 43.524 24.0298C43.0373 24.1689 42.5506 24.2384 42.1334 24.2384C41.2991 24.2384 40.6038 23.9603 39.9781 23.4736C39.3523 22.9174 39.0742 22.2221 39.0742 21.3183C39.0742 20.2058 39.4219 19.302 40.1867 18.6067C40.9515 17.9114 41.7858 17.4247 42.8287 17.0771C43.8021 16.7295 44.9145 16.4514 46.0269 16.3123V16.1037H45.8879Z" fill="white"/>
    <path d="M171.107 20.9011C171.107 21.5269 171.107 21.944 171.176 22.2916C171.176 22.6393 171.315 22.8479 171.454 23.0564C171.593 23.265 171.802 23.3346 172.15 23.3346V23.8908H166.17V23.3346C166.657 23.3346 167.004 23.126 167.074 22.7783C167.213 22.4307 167.283 21.805 167.283 20.9011V13.9484C166.726 13.9484 166.24 14.0874 165.753 14.3655C165.266 14.6437 164.849 14.9913 164.571 15.478C164.223 15.9647 164.015 16.5904 163.806 17.2857L163.32 17.2162L164.362 12.2102C164.502 12.4883 164.849 12.6274 165.405 12.6274C165.544 12.6274 165.614 12.6274 165.683 12.6274C165.753 12.6274 165.892 12.6274 165.962 12.6274H172.219C172.358 12.6274 172.428 12.6274 172.497 12.6274C172.567 12.6274 172.706 12.6274 172.775 12.6274C173.471 12.6274 173.888 12.4883 174.027 12.2102L175 17.2162L174.583 17.2857C174.235 16.1733 173.749 15.4085 173.192 14.8522C172.636 14.296 171.941 14.0179 171.107 14.0179V20.9011ZM151.5 14.9218C151.5 13.6703 151.152 13.0445 150.387 13.0445V12.4883H156.367V13.0445C156.019 13.0445 155.741 13.1836 155.602 13.4617C155.463 13.7398 155.393 14.2265 155.393 14.8522V15.9647H158.175V14.8522C158.175 14.2265 158.105 13.7398 157.966 13.4617C157.827 13.1836 157.549 12.975 157.201 12.975V12.4883H163.18V13.0445C162.416 13.0445 162.068 13.6703 162.068 14.9218V21.4573C162.068 22.7088 162.416 23.3346 163.18 23.3346V23.8908H157.201V23.3346C157.549 23.3346 157.827 23.1955 157.966 22.8479C158.105 22.5698 158.175 22.0831 158.175 21.4573V17.5638H155.393V21.4573C155.393 22.0831 155.463 22.5698 155.602 22.8479C155.741 23.126 156.019 23.3346 156.367 23.3346V23.8908H150.387V23.3346C151.152 23.3346 151.5 22.7088 151.5 21.4573V14.9218ZM145.521 16.3123V15.8951C145.521 15.5475 145.451 15.1999 145.312 14.9218C145.173 14.6437 144.964 14.3655 144.756 14.2265C144.478 14.0179 144.2 13.9484 143.921 13.9484C143.296 13.9484 142.879 14.296 142.6 14.9218C142.322 15.5475 142.183 16.3123 142.183 17.0771L145.521 16.3123ZM142.183 18.4677C142.322 19.5106 142.6 20.4144 143.157 21.1792C143.713 21.8745 144.408 22.2916 145.312 22.2916C146.146 22.2916 146.842 22.0135 147.467 21.5269C148.093 21.0402 148.58 20.3449 148.927 19.5106L149.345 19.7191L148.093 24.1689C147.815 23.9603 147.606 23.8908 147.398 23.8908C147.398 23.8908 147.259 23.8908 146.911 23.9603C145.799 24.1689 144.895 24.2384 144.269 24.2384C143.921 24.2384 143.574 24.2384 143.157 24.1689C142.739 24.0994 142.392 24.0298 142.044 23.9603C141.697 23.8908 141.279 23.6822 140.932 23.5431C140.584 23.3346 140.237 23.126 139.958 22.9174C139.263 22.3612 138.776 21.6659 138.359 20.8316C138.012 19.9973 137.803 19.1629 137.803 18.1895C137.803 17.2162 137.942 16.3818 138.29 15.617C138.637 14.8522 139.055 14.296 139.68 13.7398C140.237 13.2531 140.932 12.836 141.697 12.6274C142.461 12.3493 143.226 12.2797 144.061 12.2797C144.964 12.2797 145.868 12.4188 146.633 12.7664C147.398 13.1141 148.093 13.6007 148.58 14.296C149.066 14.9913 149.414 15.8256 149.623 16.8685L142.183 18.4677ZM125.358 20.7621C125.358 21.3183 125.358 21.7354 125.427 22.0831C125.497 22.4307 125.566 22.7088 125.775 22.9174C125.914 23.126 126.192 23.265 126.54 23.3346V23.8908H122.646V23.3346C122.994 23.265 123.272 23.1955 123.411 22.9869C123.55 22.7783 123.689 22.5698 123.689 22.2916C123.759 22.0135 123.759 21.5269 123.759 20.9706V15.6866C123.759 14.8522 123.689 14.2265 123.55 13.8093C123.411 13.3922 123.133 13.1836 122.646 13.1141V12.4883H128.973V13.0445C128.695 13.0445 128.556 13.1836 128.556 13.5312C128.556 13.8093 128.695 14.157 128.973 14.5046L130.225 16.4514L131.476 14.5046C131.754 14.0874 131.893 13.7398 131.893 13.4617C131.893 13.1836 131.824 13.0445 131.615 13.0445V12.4883H137.177V13.0445C136.83 13.1141 136.552 13.2531 136.413 13.3922C136.273 13.6007 136.134 13.8093 136.134 14.0874C136.065 14.3655 136.065 14.7827 136.065 15.4085V20.6925C136.065 21.5964 136.134 22.2916 136.273 22.6393C136.413 22.9869 136.691 23.1955 137.177 23.1955V23.7517H131.198V23.1955C131.615 23.1955 131.893 22.9869 131.963 22.7783C132.102 22.5002 132.171 22.0831 132.171 21.5964V20.8316V16.1037L128.765 21.3183L125.497 16.1733V20.7621H125.358ZM117.71 16.3123V15.8951C117.71 15.5475 117.64 15.1999 117.501 14.9218C117.362 14.6437 117.153 14.3655 116.945 14.2265C116.667 14.0179 116.389 13.9484 116.111 13.9484C115.485 13.9484 115.068 14.296 114.79 14.9218C114.511 15.5475 114.372 16.3123 114.372 17.0771L117.71 16.3123ZM114.442 18.4677C114.581 19.5106 114.859 20.4144 115.415 21.1792C115.972 21.8745 116.667 22.2916 117.571 22.2916C118.405 22.2916 119.1 22.0135 119.726 21.5269C120.352 21.0402 120.838 20.3449 121.186 19.5106L121.603 19.7191L120.352 24.1689C120.074 23.9603 119.865 23.8908 119.656 23.8908C119.656 23.8908 119.517 23.8908 119.239 23.9603C118.127 24.1689 117.223 24.2384 116.597 24.2384C116.25 24.2384 115.902 24.2384 115.485 24.1689C115.068 24.0994 114.72 24.0298 114.372 23.9603C114.025 23.8908 113.608 23.6822 113.26 23.5431C112.912 23.3346 112.565 23.126 112.287 22.9174C111.591 22.3612 111.105 21.6659 110.687 20.8316C110.34 19.9973 110.131 19.1629 110.131 18.1895C110.131 17.2162 110.27 16.3818 110.618 15.617C110.966 14.8522 111.383 14.296 112.008 13.7398C112.565 13.2531 113.26 12.836 114.025 12.6274C114.79 12.3493 115.554 12.2797 116.389 12.2797C117.293 12.2797 118.196 12.4188 118.961 12.7664C119.726 13.1141 120.421 13.6007 120.908 14.296C121.395 14.9913 121.742 15.8256 121.951 16.8685L114.442 18.4677ZM104.847 23.8908H96.5039V23.3346C97.2687 23.3346 97.6163 22.7088 97.6163 21.4573V14.9218C97.6163 13.6703 97.2687 13.0445 96.5039 13.0445V12.4883H102.414V13.0445C102.066 13.0445 101.788 13.1836 101.649 13.5312C101.51 13.8093 101.44 14.296 101.44 14.9218V21.4573C101.44 21.8745 101.51 22.1526 101.649 22.2916C101.788 22.4307 102.066 22.5002 102.414 22.5002H103.318C103.735 22.5002 103.943 22.4307 104.082 22.2916C104.221 22.1526 104.291 21.8745 104.291 21.4573V14.9218C104.291 14.296 104.221 13.8093 104.082 13.5312C103.943 13.2531 103.665 13.1141 103.318 13.1141V12.4883H109.227V13.0445C108.463 13.0445 108.115 13.6703 108.115 14.9218V21.4573C108.115 22.0831 108.184 22.5002 108.254 22.7783C108.324 23.0564 108.463 23.1955 108.671 23.1955C108.81 23.1955 108.949 23.126 109.227 22.9174L110.131 28.2015L109.714 28.271C109.436 27.4367 109.088 26.6719 108.741 26.0461C108.393 25.4204 107.837 24.8642 107.211 24.447C106.655 24.0994 105.821 23.8908 104.847 23.8908Z" fill="white"/>
</svg>
