<svg xmlns="http://www.w3.org/2000/svg" display="none">

    <symbol id="arrow-left" viewBox="0 0 11 17">
        <path d="M8.875 14.5067L2.86822 8.49993L8.875 2.49315" stroke-width="4" stroke-linecap="round"
              stroke-linejoin="round"/>
    </symbol>

    <symbol id="arrow-right" viewBox="0 0 11 17">
        <path d="M2.10156 2.49329L8.10835 8.50007L2.10156 14.5069" stroke-width="4"
              stroke-linecap="round" stroke-linejoin="round"/>
    </symbol>

    <symbol id="arrow-bottom" viewBox="0 0 15 9">
        <path d="M13.0137 1.49658L7.00689 7.50337L1.0001 1.49658" stroke-width="2" stroke-linecap="round"
              stroke-linejoin="round"/>
    </symbol>

    <symbol id="next" viewBox="0 0 8 14">
        <path d="M1 1L7.00678 7.00678L1 13.0136" stroke-linecap="round" stroke-linejoin="round"/>
    </symbol>

    <symbol id="vk" viewBox="0 0 22 14">
        <path d="M18.2561 7.95457C17.9004 7.49957 18.0021 7.29714 18.2561 6.89043C18.2606 6.88579 21.1968 2.77593 21.4993 1.38214L21.5012 1.38121C21.6515 0.873286 21.5012 0.5 20.7742 0.5H18.3688C17.7564 0.5 17.4741 0.820357 17.3228 1.17879C17.3228 1.17879 16.0981 4.14836 14.3656 6.07329C13.8064 6.6295 13.5479 6.80779 13.2426 6.80779C13.0923 6.80779 12.8585 6.6295 12.8585 6.12157V1.38121C12.8585 0.772071 12.6871 0.5 12.1802 0.5H8.39787C8.01378 0.5 7.78552 0.784143 7.78552 1.04879C7.78552 1.62636 8.6518 1.75914 8.74164 3.38414V6.90993C8.74164 7.6825 8.60322 7.82457 8.29612 7.82457C7.47843 7.82457 5.49377 4.84293 4.31765 1.43043C4.08022 0.768357 3.8483 0.500929 3.23136 0.500929H0.825029C0.138421 0.500929 0 0.821286 0 1.17971C0 1.813 0.817695 4.96179 3.80246 9.12179C5.7917 11.9614 8.59313 13.5 11.1416 13.5C12.6734 13.5 12.8604 13.1583 12.8604 12.5705C12.8604 9.85721 12.7219 9.60093 13.4892 9.60093C13.8449 9.60093 14.4573 9.77921 15.8873 11.1489C17.5218 12.7729 17.7904 13.5 18.7052 13.5H21.1106C21.7963 13.5 22.1438 13.1583 21.9439 12.4841C21.4865 11.0662 18.3954 8.14957 18.2561 7.95457Z"/>
    </symbol>

    <symbol id="telegram" viewBox="0 0 21 18">
        <path d="M8.24023 11.8632L7.89285 16.8888C8.38986 16.8888 8.60511 16.6692 8.86324 16.4055L11.1934 14.115L16.0218 17.7519C16.9073 18.2595 17.5312 17.9922 17.7701 16.914L20.9394 1.63926L20.9403 1.63836C21.2212 0.291963 20.4669 -0.234534 19.6041 0.0957645L0.974929 7.43163C-0.296476 7.93922 -0.277226 8.66822 0.758799 8.99852L5.52154 10.5222L16.5844 3.40235C17.1051 3.04775 17.5785 3.24395 17.1891 3.59855L8.24023 11.8632Z"/>
    </symbol>


    <symbol id="location" viewBox="0 0 13 17">
        <path fill-rule="evenodd" clip-rule="evenodd"
              d="M6.5 17C6.5 17 13 9.72211 13 6.26316C13 2.80421 10.0898 0 6.5 0C2.91015 0 0 2.80421 0 6.26316C0 9.72211 6.5 17 6.5 17ZM6.5 9.54386C8.3804 9.54386 9.90476 8.07506 9.90476 6.26316C9.90476 4.45126 8.3804 2.98246 6.5 2.98246C4.6196 2.98246 3.09524 4.45126 3.09524 6.26316C3.09524 8.07506 4.6196 9.54386 6.5 9.54386Z"/>
    </symbol>

    <symbol id="close" viewBox="0 0 26 26">
        <path d="M5.69495 0.949314C4.39215 -0.316438 2.2799 -0.316438 0.9771 0.949314C-0.325697 2.21507 -0.325698 4.26726 0.9771 5.53301L8.66262 13L0.977098 20.467C-0.325699 21.7327 -0.325699 23.7849 0.977097 25.0507C2.2799 26.3164 4.39215 26.3164 5.69494 25.0507L13.3805 17.5837L20.3051 24.3114C21.6079 25.5771 23.7201 25.5771 25.0229 24.3114C26.3257 23.0456 26.3257 20.9934 25.0229 19.7277L18.0983 13L25.0229 6.27232C26.3257 5.00656 26.3257 2.95437 25.0229 1.68862C23.7201 0.422868 21.6079 0.422868 20.3051 1.68862L13.3805 8.4163L5.69495 0.949314Z"/>
    </symbol>

</svg>